<svg width="600" height="563" viewBox="0 0 600 563" fill="none" xmlns="http://www.w3.org/2000/svg">
<path d="M392.465 512.414L428.375 468.723L455.884 491.334L397.363 562.532C393.751 559.563 390.759 555.912 388.557 551.786C386.356 547.66 384.989 543.141 384.534 538.488C384.079 533.834 384.546 529.136 385.906 524.662C387.267 520.188 389.496 516.026 392.465 512.414V512.414Z" fill="#2F2E41"/>
<path d="M382.102 479.165L380.392 449.893L492.492 429.358L495.018 472.566L382.102 479.165Z" fill="#FFB8B8"/>
<path d="M387.533 428.492L390.833 484.95L355.285 487.028L349.907 395.022C354.575 394.75 359.252 395.399 363.669 396.933C368.086 398.467 372.158 400.857 375.652 403.965C379.146 407.073 381.993 410.838 384.032 415.047C386.07 419.255 387.26 423.824 387.533 428.492Z" fill="#2F2E41"/>
<path d="M430.859 478.897L412.238 501.551L315.996 440.512L343.477 407.077L430.859 478.897Z" fill="#FFB8B8"/>
<path d="M443.464 129.164C479.132 129.164 508.046 100.25 508.046 64.582C508.046 28.9144 479.132 0 443.464 0C407.797 0 378.882 28.9144 378.882 64.582C378.882 100.25 407.797 129.164 443.464 129.164Z" fill="#2F2E41"/>
<path d="M377.274 373.547L364.55 433.534C364.257 434.915 364.273 436.344 364.598 437.718C364.922 439.092 365.547 440.377 366.427 441.482C367.307 442.586 368.42 443.482 369.687 444.105C370.954 444.728 372.343 445.063 373.755 445.086L498.847 447.103C500.258 447.126 501.655 446.837 502.94 446.256C504.226 445.676 505.367 444.818 506.282 443.745C507.197 442.672 507.863 441.41 508.234 440.049C508.604 438.689 508.669 437.263 508.424 435.874L497.482 373.869C497.091 371.654 495.932 369.648 494.209 368.202C492.486 366.757 490.309 365.964 488.06 365.964H386.634C384.441 365.964 382.315 366.718 380.611 368.098C378.907 369.478 377.729 371.402 377.274 373.547V373.547Z" fill="#2F2E41"/>
<path d="M398.018 394.668C398.018 394.668 276.03 318.127 252.11 358.789C240.151 379.121 246.131 398.854 255.1 413.505C263.424 426.844 275.373 437.539 289.55 444.339L388.45 492.737L424.329 454.466L400.41 432.939L398.018 394.668Z" fill="#2F2E41"/>
<path d="M460.208 382.708C460.208 382.708 618.075 337.262 586.98 423.371C555.885 509.48 438.681 475.993 438.681 475.993L426.721 440.115L467.384 411.411L460.208 382.708Z" fill="#2F2E41"/>
<path d="M444.274 138.077C476.72 138.077 503.022 111.775 503.022 79.3291C503.022 46.8834 476.72 20.581 444.274 20.581C411.828 20.581 385.526 46.8834 385.526 79.3291C385.526 111.775 411.828 138.077 444.274 138.077Z" fill="#FFB8B8"/>
<path d="M447.353 392.202C422.941 391.832 398.654 388.633 374.98 382.667L374.28 382.475L341.498 231.676C338.549 218.425 340.554 204.552 347.135 192.679C353.715 180.805 364.416 171.752 377.216 167.23C416.754 153.043 459.848 152.183 499.921 164.779H499.921C513.368 169.112 524.686 178.356 531.618 190.665C538.55 202.975 540.585 217.446 537.319 231.19L500.703 382.349L500.187 382.594C484.97 389.803 465.941 392.202 447.353 392.202Z" fill="#CCCCCC"/>
<path d="M403.317 403.916C404.507 400.607 406.409 397.6 408.887 395.106C411.366 392.612 414.361 390.691 417.662 389.48C420.963 388.268 424.49 387.795 427.993 388.094C431.497 388.393 434.893 389.457 437.941 391.21L502.49 335.18L508.331 379.212L446.138 425.668C442.853 430.594 437.876 434.143 432.149 435.644C426.422 437.145 420.344 436.493 415.066 433.812C409.788 431.131 405.676 426.607 403.511 421.097C401.345 415.587 401.276 409.474 403.317 403.916V403.916Z" fill="#FFB8B8"/>
<path d="M464.88 416.137C463.83 416.136 462.785 415.983 461.779 415.682C460.146 415.206 458.65 414.347 457.417 413.175C456.185 412.003 455.251 410.552 454.693 408.945L446.902 386.871C446.173 384.831 446.08 382.618 446.636 380.524C447.192 378.43 448.371 376.554 450.017 375.145L537.965 322.345L503.296 167.68L504.178 167.468C504.537 167.379 540.057 159.295 554.613 198.11C564.806 225.295 602.527 284.404 599.866 324.347C599.36 332.337 596.177 339.923 590.829 345.881C585.481 351.838 578.282 355.82 570.393 357.182L471.395 413.902C469.531 415.348 467.239 416.134 464.88 416.137Z" fill="#CCCCCC"/>
<path d="M474.744 398.669C473.553 395.36 471.652 392.352 469.173 389.858C466.695 387.364 463.699 385.443 460.398 384.232C457.097 383.021 453.571 382.548 450.067 382.847C446.563 383.145 443.168 384.209 440.12 385.962L375.57 329.932L369.73 373.964L431.923 420.42C435.207 425.346 440.185 428.895 445.911 430.396C451.638 431.897 457.716 431.245 462.995 428.564C468.273 425.883 472.384 421.359 474.55 415.849C476.715 410.339 476.784 404.226 474.744 398.669V398.669Z" fill="#FFB8B8"/>
<path d="M419.657 416.137C417.298 416.133 415.006 415.347 413.142 413.901L306.969 361.966C299.08 360.603 291.88 356.622 286.532 350.664C281.185 344.706 278.001 337.12 277.495 329.13C274.834 289.187 319.731 225.294 329.924 198.109C344.479 159.294 380 167.377 380.359 167.468L381.241 167.68L339.396 327.129L434.52 375.145C436.166 376.554 437.345 378.429 437.901 380.523C438.457 382.617 438.365 384.831 437.635 386.871L429.844 408.945C429.287 410.552 428.353 412.002 427.12 413.174C425.887 414.346 424.391 415.206 422.758 415.681C421.752 415.982 420.707 416.136 419.657 416.137V416.137Z" fill="#CCCCCC"/>
<path d="M546.317 440.114H333.436C328.997 440.109 324.741 438.344 321.602 435.205C318.463 432.066 316.698 427.81 316.693 423.371V306.167C316.698 301.728 318.463 297.472 321.602 294.333C324.741 291.194 328.997 289.428 333.436 289.423H546.317C550.757 289.428 555.012 291.194 558.151 294.333C561.29 297.472 563.056 301.728 563.061 306.167V423.371C563.056 427.81 561.29 432.066 558.151 435.205C555.012 438.344 550.757 440.109 546.317 440.114V440.114Z" fill="#FBD38D"/>
<path d="M439.877 379.121C447.803 379.121 454.228 372.695 454.228 364.769C454.228 356.843 447.803 350.418 439.877 350.418C431.95 350.418 425.525 356.843 425.525 364.769C425.525 372.695 431.95 379.121 439.877 379.121Z" fill="white"/>
<path d="M384.938 76.9381C381.456 68.1064 387.169 57.5816 395.643 53.3034C404.118 49.0253 414.344 49.8389 423.409 52.6585C431.027 55.028 438.167 58.7002 445.599 61.6006C452.926 64.8475 460.93 66.2729 468.927 65.7552C476.854 64.8598 484.745 60.4145 487.988 53.1258C491.351 45.5706 489.064 36.3509 483.886 29.9031C478.376 23.6696 471.246 19.0867 463.287 16.6642C445.808 10.5063 425.619 10.3263 409.392 19.2774C393.165 28.2284 382.137 47.2874 385.491 65.5134" fill="#2F2E41"/>
<path d="M45.4562 414.566C48.4113 382.74 56.5731 351.616 69.6159 322.435C73.251 314.315 77.252 306.373 81.6189 298.61C81.8379 298.204 81.8907 297.729 81.7661 297.284C81.6415 296.84 81.3492 296.462 80.9509 296.229C80.5526 295.996 80.0795 295.927 79.6314 296.037C79.1832 296.146 78.795 296.425 78.5488 296.815C62.6681 325.09 51.5426 355.783 45.6172 387.666C43.9689 396.57 42.73 405.536 41.9006 414.566C41.6899 416.843 45.2467 416.829 45.4562 414.566V414.566Z" fill="#E6E6E6"/>
<path d="M90.2305 304.312C102.667 304.312 112.749 294.23 112.749 281.793C112.749 269.356 102.667 259.275 90.2305 259.275C77.7938 259.275 67.7119 269.356 67.7119 281.793C67.7119 294.23 77.7938 304.312 90.2305 304.312Z" fill="#FBD38D"/>
<path d="M47.7593 415.163C49.6765 394.516 54.9714 374.325 63.4328 355.394C65.7911 350.126 68.3868 344.973 71.2197 339.937C71.3618 339.674 71.396 339.366 71.3152 339.077C71.2343 338.789 71.0446 338.544 70.7863 338.393C70.528 338.242 70.2211 338.197 69.9304 338.268C69.6396 338.339 69.3879 338.52 69.2281 338.773C58.9256 357.116 51.7079 377.028 47.8638 397.712C46.7945 403.489 45.9908 409.306 45.4527 415.163C45.316 416.641 47.6235 416.631 47.7594 415.163H47.7593Z" fill="#E6E6E6"/>
<path d="M76.8068 343.637C84.8751 343.637 91.4157 337.096 91.4157 329.028C91.4157 320.96 84.8751 314.419 76.8068 314.419C68.7386 314.419 62.198 320.96 62.198 329.028C62.198 337.096 68.7386 343.637 76.8068 343.637Z" fill="#FBD38D"/>
<path d="M44.8483 413.784C33.6608 396.325 25.4166 377.147 20.4448 357.017C19.064 351.412 17.9417 345.754 17.0779 340.04C17.028 339.745 16.8654 339.481 16.6244 339.303C16.3834 339.126 16.0829 339.049 15.7862 339.089C15.4896 339.128 15.22 339.282 15.0344 339.517C14.8488 339.752 14.7616 340.049 14.7914 340.347C17.9502 361.147 24.5062 381.286 34.1972 399.96C36.9068 405.172 39.8509 410.253 43.0295 415.202C43.8304 416.451 45.6441 415.025 44.8483 413.784V413.784Z" fill="#E6E6E6"/>
<path d="M14.7732 342.611C22.8414 342.611 29.382 336.071 29.382 328.002C29.382 319.934 22.8414 313.394 14.7732 313.394C6.70491 313.394 0.164307 319.934 0.164307 328.002C0.164307 336.071 6.70491 342.611 14.7732 342.611Z" fill="#FBD38D"/>
<path d="M0 426.709V398.006C0.00321609 395.152 1.13831 392.416 3.1562 390.398C5.17408 388.38 7.90996 387.245 10.7637 387.242H77.7377C80.5914 387.245 83.3273 388.38 85.3452 390.398C87.3631 392.416 88.4982 395.152 88.5014 398.006V426.709C88.4982 429.563 87.3631 432.299 85.3452 434.316C83.3273 436.334 80.5914 437.469 77.7377 437.473H10.7637C7.90996 437.469 5.17408 436.334 3.1562 434.316C1.13831 432.299 0.00321609 429.563 0 426.709V426.709Z" fill="#F2F2F2"/>
</svg>
