<svg width="349" height="579" viewBox="0 0 349 579" fill="none" xmlns="http://www.w3.org/2000/svg">
<path d="M218.444 171.195C210.489 175.966 196.316 181.944 181.833 175.8L172.47 171.829L191.232 150.798C176.26 134.29 167.978 112.796 168 90.5107C168.023 68.2253 176.35 46.7483 191.355 30.2715C206.36 13.7948 226.967 3.50104 249.153 1.39949C271.339 -0.702057 293.512 5.53944 311.344 18.9057C329.176 32.272 341.387 51.8037 345.594 73.6884C349.801 95.5731 345.701 118.24 334.096 137.265C322.49 156.29 304.211 170.307 282.827 176.581C261.443 182.854 238.488 180.934 218.444 171.195Z" fill="white"/>
<path d="M218.493 172.328C210.849 176.816 196.288 183.018 181.442 176.721L170.795 172.204L189.89 150.8C178.009 137.436 170.349 120.856 167.873 103.147C165.397 85.4382 168.217 67.3927 175.977 51.2831C183.737 35.1735 196.09 21.7204 211.481 12.6179C226.872 3.51538 244.612 -0.829389 262.467 0.130737C280.323 1.09086 297.495 7.31295 311.821 18.0134C326.147 28.7138 336.986 43.4142 342.974 60.263C348.962 77.1118 349.83 95.3556 345.47 112.697C341.109 130.038 331.715 145.702 318.47 157.714C305.168 169.852 288.537 177.73 270.72 180.334C252.902 182.939 234.712 180.15 218.493 172.328ZM323.233 31.079C315.417 22.4569 305.979 15.459 295.458 10.4849C284.938 5.51085 273.54 2.65804 261.917 2.08942C250.293 1.52079 238.672 3.24751 227.716 7.17094C216.76 11.0944 206.684 17.1377 198.064 24.9557C189.444 32.7737 182.449 42.2132 177.477 52.7351C172.506 63.2571 169.656 74.6554 169.09 86.2789C168.524 97.9024 170.254 109.524 174.18 120.479C178.106 131.434 184.152 141.508 191.972 150.126L192.577 150.792L174.145 171.453L182.223 174.88C196.561 180.962 210.748 174.644 217.93 170.337L218.394 170.059L218.881 170.295C237.392 179.29 258.458 181.56 278.46 176.715C298.463 171.87 316.155 160.212 328.499 143.744C340.843 127.276 347.069 107.024 346.108 86.4654C345.147 65.9067 337.059 46.324 323.233 31.079Z" fill="#FBD38D"/>
<path d="M313.011 92.5289H210.319V98.0004H313.011V92.5289Z" fill="#FBD38D"/>
<path d="M312.91 111.457H210.319V116.928H312.91V111.457Z" fill="#FBD38D"/>
<path d="M57.3157 553.067L43.2457 557.137L20.8497 504.805L41.6157 498.797L57.3157 553.067Z" fill="#9E616A"/>
<path d="M64.8497 565.667L19.4824 578.792L19.3164 578.218C17.9618 573.535 18.5228 568.505 20.8762 564.236C23.2295 559.966 27.1824 556.806 31.8654 555.451H31.8665L59.5753 547.435L64.8497 565.667Z" fill="#2F2E41"/>
<path d="M167.478 554.468L181.687 558.021L202.153 504.904L181.182 499.661L167.478 554.468Z" fill="#9E616A"/>
<path d="M165.013 548.922L192.997 555.919L192.998 555.92C197.727 557.103 201.793 560.116 204.301 564.296C206.809 568.477 207.554 573.483 206.371 578.212L206.226 578.792L160.409 567.335L165.013 548.922Z" fill="#2F2E41"/>
<path d="M90.9637 363.413L76.4482 378.896C76.4482 378.896 0 412.766 0 430.184C0 447.603 18.3862 523.083 26.1278 528.89C30.7908 532.406 28.683 536.193 30.9964 541.556L58.0619 531.793C58.0619 531.793 56.1265 525.987 58.0619 523.083C59.9973 520.18 58.0619 518.245 58.0619 518.245C58.0619 518.245 55.1588 519.213 56.1265 516.31C57.0942 513.407 57.0942 512.439 56.1265 511.471C55.1588 510.503 52.2557 501.794 52.2557 501.794C52.2557 501.794 53.2234 466.957 39.6756 454.377C39.6756 454.377 102.576 435.991 110.318 423.41C118.059 410.83 119.995 365.349 119.995 365.349L90.9637 363.413Z" fill="#2F2E41"/>
<path d="M132.575 356.639L147.09 381.799C147.09 381.799 223.538 415.669 223.538 433.087C223.538 450.506 205.152 525.987 197.41 531.793C192.747 535.309 194.084 540.598 191.77 545.961L165.476 534.696C165.476 534.696 167.412 528.89 165.476 525.987C163.541 523.083 165.476 521.148 165.476 521.148C165.476 521.148 168.379 522.116 167.412 519.213C166.444 516.31 166.444 515.342 167.412 514.374C168.379 513.406 171.283 504.697 171.283 504.697C171.283 504.697 170.315 469.86 183.863 457.28C183.863 457.28 115.156 433.087 107.414 420.507C97.4998 404.396 104.749 338.236 102.576 360.51L132.575 356.639Z" fill="#2F2E41"/>
<path d="M137.413 241.483C151.309 241.483 162.573 230.219 162.573 216.323C162.573 202.428 151.309 191.163 137.413 191.163C123.518 191.163 112.253 202.428 112.253 216.323C112.253 230.219 123.518 241.483 137.413 241.483Z" fill="#9E616A"/>
<path d="M154.832 254.063C154.832 254.063 155.064 254.512 110.88 251.042C110.88 251.042 86.1251 260.837 87.0928 267.611C88.0605 274.385 85.1575 367.284 85.1575 367.284C85.1575 367.284 125.801 378.896 137.413 367.284C149.026 355.672 154.832 254.063 154.832 254.063Z" fill="#FEFEFE"/>
<path d="M146.255 253.043L158.001 253.778C158.001 253.778 192.572 266.643 191.604 276.32C190.637 285.997 172.25 331.479 172.25 331.479C172.25 331.479 162.573 366.316 164.509 375.993C166.444 385.67 169.347 388.573 167.412 391.476C165.476 394.379 167.412 400.186 167.412 402.121C167.412 404.056 155.799 411.798 155.799 411.798C155.799 411.798 137.413 395.347 130.639 392.444C123.865 389.541 119.027 367.284 123.865 347.93C128.704 328.576 143.219 266.643 143.219 266.643C142.775 264.289 142.815 261.869 143.337 259.531C143.859 257.193 144.852 254.985 146.255 253.043Z" fill="#3F3D56"/>
<path d="M115.532 250.293C110.625 249.33 105.561 249.518 100.739 250.841C95.7109 252.212 72.5773 260.837 72.5773 264.708C72.5773 268.579 82.2543 316.964 82.2543 316.964L84.1897 345.027L66.7711 357.607C66.7711 357.607 70.6419 370.187 65.8034 375.026C60.965 379.864 55.1588 392.444 60.9649 394.38C66.7711 396.315 102.576 382.767 103.544 368.252C104.511 353.736 100.641 343.092 107.414 332.447C114.188 321.802 115.156 280.191 115.156 280.191L115.532 250.293Z" fill="#3F3D56"/>
<path d="M160.911 194.615C157.15 188.507 151.262 184.006 144.382 181.979L139.328 186.022L141.293 181.306C139.64 181.054 137.968 180.957 136.298 181.017L131.751 186.864L133.633 181.218C129.687 181.708 125.886 183.01 122.469 185.043C119.051 187.076 116.092 189.794 113.778 193.027C107.991 201.372 107.014 212.977 112.707 221.387C114.269 216.585 116.166 212.08 117.728 207.278C118.956 207.445 120.201 207.451 121.43 207.296L123.331 202.86L123.862 207.108C129.755 206.595 138.494 205.468 144.081 204.435L143.537 201.176L146.787 203.884C148.499 203.49 149.515 203.133 149.431 202.86C153.585 209.558 158.67 213.835 162.824 220.533C164.401 211.086 166.217 203.233 160.911 194.615Z" fill="#2F2E41"/>
<path d="M160.638 220.678C161.76 220.678 162.67 219.161 162.67 217.291C162.67 215.42 161.76 213.904 160.638 213.904C159.516 213.904 158.606 215.42 158.606 217.291C158.606 219.161 159.516 220.678 160.638 220.678Z" fill="#A0616A"/>
<path d="M150.25 389.885H106.52C105.419 389.885 104.363 389.447 103.585 388.669C102.807 387.891 102.37 386.835 102.37 385.735L100.443 328.515C100.443 327.414 100.88 326.359 101.658 325.58C102.436 324.802 103.492 324.365 104.593 324.365H152.177C153.278 324.365 154.333 324.802 155.112 325.58C155.89 326.359 156.327 327.414 156.327 328.515L154.4 385.735C154.4 386.835 153.963 387.891 153.185 388.669C152.406 389.447 151.351 389.885 150.25 389.885Z" fill="#E4E4E4"/>
<path d="M128.385 345.562C130.513 345.562 132.239 343.837 132.239 341.708C132.239 339.58 130.513 337.854 128.385 337.854C126.256 337.854 124.531 339.58 124.531 341.708C124.531 343.837 126.256 345.562 128.385 345.562Z" fill="#FBD38D"/>
<path d="M134.765 366.555C135.68 365.332 136.852 364.324 138.198 363.603C139.545 362.882 141.033 362.465 142.558 362.381C144.084 362.298 145.609 362.549 147.026 363.119C148.443 363.688 149.719 364.562 150.762 365.677L173.119 357.295L181.526 369.639L149.788 381.033C147.797 382.661 145.279 383.503 142.709 383.399C140.14 383.295 137.697 382.251 135.846 380.467C133.994 378.682 132.861 376.28 132.662 373.716C132.463 371.152 133.211 368.604 134.765 366.555Z" fill="#9E616A"/>
<path d="M121.376 364.029C120.703 362.658 119.738 361.451 118.548 360.493C117.358 359.535 115.973 358.85 114.489 358.486C113.006 358.121 111.461 358.086 109.962 358.384C108.464 358.681 107.049 359.303 105.817 360.207L85.3973 347.833L74.8511 358.408L103.934 375.477C105.588 377.446 107.908 378.739 110.452 379.112C112.997 379.485 115.59 378.912 117.74 377.501C119.89 376.09 121.447 373.939 122.118 371.456C122.788 368.973 122.524 366.331 121.376 364.029Z" fill="#9E616A"/>
<path d="M176.121 270.514C176.121 270.514 190.637 267.611 194.507 280.191C198.378 292.771 217.732 339.221 211.926 345.995C206.12 352.769 184.83 371.155 178.056 375.026C171.283 378.896 168.379 378.896 168.379 378.896L159.67 382.767L156.767 360.51L166.699 354.627L181.927 342.124L173.218 315.996L176.121 270.514Z" fill="#3F3D56"/>
<path d="M81.2866 263.74C81.2866 263.74 66.7711 260.837 62.9004 273.417C59.0296 285.997 39.6756 332.447 45.4818 339.221C51.288 345.995 72.5774 364.381 79.3512 368.252C86.1251 372.123 89.0282 372.123 89.0282 372.123L97.7375 375.993L100.641 353.736L90.7084 347.853L75.4805 335.35L89.5121 300.997L81.2866 263.74Z" fill="#3F3D56"/>
</svg>
