<svg width="347" height="577" viewBox="0 0 347 577" fill="none" xmlns="http://www.w3.org/2000/svg">
<path d="M57.3157 551.067L43.2457 555.137L20.8497 502.805L41.6157 496.797L57.3157 551.067Z" fill="#9E616A"/>
<path d="M64.8497 563.667L19.4824 576.792L19.3164 576.218C17.9618 571.535 18.5228 566.505 20.8762 562.236C23.2295 557.966 27.1824 554.806 31.8654 553.451H31.8665L59.5753 545.435L64.8497 563.667Z" fill="#2F2E41"/>
<path d="M167.478 552.468L181.687 556.021L202.153 502.904L181.182 497.661L167.478 552.468Z" fill="#9E616A"/>
<path d="M165.013 546.922L192.997 553.919L192.998 553.92C197.727 555.103 201.793 558.116 204.301 562.296C206.809 566.477 207.554 571.483 206.371 576.212L206.226 576.792L160.409 565.335L165.013 546.922Z" fill="#2F2E41"/>
<path d="M90.9637 361.413L76.4482 376.896C76.4482 376.896 0 410.766 0 428.184C0 445.603 18.3862 521.083 26.1278 526.89C30.7908 530.406 28.683 534.193 30.9964 539.556L58.0619 529.793C58.0619 529.793 56.1265 523.987 58.0619 521.083C59.9973 518.18 58.0619 516.245 58.0619 516.245C58.0619 516.245 55.1588 517.213 56.1265 514.31C57.0942 511.407 57.0942 510.439 56.1265 509.471C55.1588 508.503 52.2557 499.794 52.2557 499.794C52.2557 499.794 53.2234 464.957 39.6756 452.377C39.6756 452.377 102.576 433.991 110.318 421.41C118.059 408.83 119.995 363.349 119.995 363.349L90.9637 361.413Z" fill="#2F2E41"/>
<path d="M132.575 354.639L147.09 379.799C147.09 379.799 223.538 413.669 223.538 431.087C223.538 448.506 205.152 523.987 197.41 529.793C192.747 533.309 194.084 538.598 191.77 543.961L165.476 532.696C165.476 532.696 167.412 526.89 165.476 523.987C163.541 521.083 165.476 519.148 165.476 519.148C165.476 519.148 168.379 520.116 167.412 517.213C166.444 514.31 166.444 513.342 167.412 512.374C168.379 511.406 171.283 502.697 171.283 502.697C171.283 502.697 170.315 467.86 183.863 455.28C183.863 455.28 115.156 431.087 107.414 418.507C97.4998 402.396 104.749 336.236 102.576 358.51L132.575 354.639Z" fill="#2F2E41"/>
<path d="M137.413 239.483C151.309 239.483 162.573 228.219 162.573 214.323C162.573 200.428 151.309 189.163 137.413 189.163C123.518 189.163 112.253 200.428 112.253 214.323C112.253 228.219 123.518 239.483 137.413 239.483Z" fill="#9E616A"/>
<path d="M154.832 252.063C154.832 252.063 155.064 252.512 110.88 249.042C110.88 249.042 86.1251 258.837 87.0928 265.611C88.0605 272.385 85.1575 365.284 85.1575 365.284C85.1575 365.284 125.801 376.896 137.413 365.284C149.026 353.672 154.832 252.063 154.832 252.063Z" fill="#FEFEFE"/>
<path d="M146.255 251.043L158.001 251.778C158.001 251.778 192.572 264.643 191.604 274.32C190.637 283.997 172.25 329.479 172.25 329.479C172.25 329.479 162.573 364.316 164.509 373.993C166.444 383.67 169.347 386.573 167.412 389.476C165.476 392.379 167.412 398.186 167.412 400.121C167.412 402.056 155.799 409.798 155.799 409.798C155.799 409.798 137.413 393.347 130.639 390.444C123.865 387.541 119.027 365.284 123.865 345.93C128.704 326.576 143.219 264.643 143.219 264.643C142.775 262.289 142.815 259.869 143.337 257.531C143.859 255.193 144.852 252.985 146.255 251.043Z" fill="#3F3D56"/>
<path d="M115.532 248.293C110.625 247.33 105.561 247.518 100.739 248.841C95.7109 250.212 72.5773 258.837 72.5773 262.708C72.5773 266.579 82.2543 314.964 82.2543 314.964L84.1897 343.027L66.7711 355.607C66.7711 355.607 70.6419 368.187 65.8034 373.026C60.965 377.864 55.1588 390.444 60.9649 392.38C66.7711 394.315 102.576 380.767 103.544 366.252C104.511 351.736 100.641 341.092 107.414 330.447C114.188 319.802 115.156 278.191 115.156 278.191L115.532 248.293Z" fill="#3F3D56"/>
<path d="M160.911 192.615C157.15 186.507 151.262 182.006 144.382 179.979L139.328 184.022L141.293 179.306C139.64 179.054 137.968 178.957 136.298 179.017L131.751 184.864L133.633 179.218C129.687 179.708 125.886 181.01 122.469 183.043C119.051 185.076 116.092 187.794 113.778 191.027C107.991 199.372 107.014 210.977 112.707 219.387C114.269 214.585 116.166 210.08 117.728 205.278C118.956 205.445 120.201 205.451 121.43 205.296L123.331 200.86L123.862 205.108C129.755 204.595 138.494 203.468 144.081 202.435L143.537 199.176L146.787 201.884C148.499 201.49 149.515 201.133 149.431 200.86C153.585 207.558 158.67 211.835 162.824 218.533C164.401 209.086 166.217 201.233 160.911 192.615Z" fill="#2F2E41"/>
<path d="M160.638 218.678C161.76 218.678 162.67 217.161 162.67 215.291C162.67 213.42 161.76 211.904 160.638 211.904C159.516 211.904 158.606 213.42 158.606 215.291C158.606 217.161 159.516 218.678 160.638 218.678Z" fill="#A0616A"/>
<path d="M150.25 387.885H106.52C105.419 387.885 104.363 387.447 103.585 386.669C102.807 385.891 102.37 384.835 102.37 383.735L100.443 326.515C100.443 325.414 100.88 324.359 101.658 323.58C102.436 322.802 103.492 322.365 104.593 322.365H152.177C153.278 322.365 154.333 322.802 155.112 323.58C155.89 324.359 156.327 325.414 156.327 326.515L154.4 383.735C154.4 384.835 153.963 385.891 153.185 386.669C152.406 387.447 151.351 387.885 150.25 387.885Z" fill="#E4E4E4"/>
<path d="M128.385 343.562C130.513 343.562 132.239 341.837 132.239 339.708C132.239 337.58 130.513 335.854 128.385 335.854C126.256 335.854 124.531 337.58 124.531 339.708C124.531 341.837 126.256 343.562 128.385 343.562Z" fill="#FBD38D"/>
<path d="M134.765 364.555C135.68 363.332 136.852 362.324 138.198 361.603C139.545 360.882 141.033 360.465 142.558 360.381C144.084 360.298 145.609 360.549 147.026 361.119C148.443 361.688 149.719 362.562 150.762 363.677L173.119 355.295L181.526 367.639L149.788 379.033C147.797 380.661 145.279 381.503 142.709 381.399C140.14 381.295 137.697 380.251 135.846 378.467C133.994 376.682 132.861 374.28 132.662 371.716C132.463 369.152 133.211 366.604 134.765 364.555Z" fill="#9E616A"/>
<path d="M121.376 362.029C120.703 360.658 119.738 359.451 118.548 358.493C117.358 357.535 115.973 356.85 114.489 356.486C113.006 356.121 111.461 356.086 109.962 356.384C108.464 356.681 107.049 357.303 105.817 358.207L85.3973 345.833L74.8511 356.408L103.934 373.477C105.588 375.446 107.908 376.739 110.452 377.112C112.997 377.485 115.59 376.912 117.74 375.501C119.89 374.09 121.447 371.939 122.118 369.456C122.788 366.973 122.524 364.331 121.376 362.029Z" fill="#9E616A"/>
<path d="M176.121 268.514C176.121 268.514 190.637 265.611 194.507 278.191C198.378 290.771 217.732 337.221 211.926 343.995C206.12 350.769 184.83 369.155 178.056 373.026C171.283 376.896 168.379 376.896 168.379 376.896L159.67 380.767L156.767 358.51L166.699 352.627L181.927 340.124L173.218 313.996L176.121 268.514Z" fill="#3F3D56"/>
<path d="M81.2866 261.74C81.2866 261.74 66.7711 258.837 62.9004 271.417C59.0296 283.997 39.6756 330.447 45.4818 337.221C51.288 343.995 72.5774 362.381 79.3512 366.252C86.1251 370.123 89.0282 370.123 89.0282 370.123L97.7375 373.993L100.641 351.736L90.7084 345.853L75.4805 333.35L89.5121 298.997L81.2866 261.74Z" fill="#3F3D56"/>
<path d="M217.444 170.195C209.489 174.966 195.316 180.944 180.833 174.8L171.47 170.829L190.232 149.798C175.26 133.29 166.978 111.796 167 89.5107C167.023 67.2253 175.35 45.7483 190.355 29.2715C205.36 12.7948 225.967 2.50104 248.153 0.39949C270.339 -1.70206 292.512 4.53944 310.344 17.9057C328.176 31.272 340.387 50.8037 344.594 72.6884C348.801 94.5731 344.701 117.24 333.096 136.265C321.49 155.29 303.211 169.307 281.827 175.581C260.443 181.854 237.488 179.934 217.444 170.195Z" fill="#FEF4E3"/>
<path d="M312.011 91.5289H209.319V97.0004H312.011V91.5289Z" fill="#FBD38D"/>
<path d="M311.91 110.457H209.319V115.928H311.91V110.457Z" fill="#FBD38D"/>
</svg>
