<svg width="534" height="575" viewBox="0 0 534 575" fill="none" xmlns="http://www.w3.org/2000/svg">
<path d="M510.3 465.62C503.4 455.42 393.6 412.22 393.6 412.22L353.4 396.62L336.6 190.22H198.3L181.8 396.92L141.6 412.52C141.6 412.52 32.1 455.72 24.9 465.92C18 476.12 15 510.62 15 510.62V567.92H520.5V510.32C520.2 510.62 517.5 475.82 510.3 465.62V465.62Z" fill="#CB8D60"/>
<path d="M218.13 393.62C227.13 398.42 273.33 398.42 282.33 393.62C289.23 389.96 327.15 354.5 348.39 333.5L336.72 190.22H198.36L184.53 364.28C200.07 378.77 214.47 391.55 218.13 393.62V393.62Z" fill="#AC642F"/>
<path d="M521.4 567.92C521.1 548.72 521.1 529.52 521.1 510.32L520.2 510.02C520.2 510.02 520.5 509.72 520.8 510.02C521.1 510.02 521.1 510.32 521.1 510.32V509.12L520.8 507.62L520.5 504.92L519.9 499.22C519.3 495.32 518.7 491.72 518.1 487.82C517.5 483.92 516.6 480.32 515.4 476.42C514.2 472.82 513 468.92 510.9 465.62C508.5 462.92 505.2 461.12 502.2 459.32C499.2 457.52 495.9 456.02 492.6 454.22C486.3 450.92 479.7 447.92 473.1 444.92C459.9 438.92 447 433.22 433.8 427.82C420.6 422.12 407.4 416.72 394.2 411.32L355.2 395.72L351.6 345.02C350.4 327.92 348.9 310.52 347.7 293.42L343.8 241.82L339.3 189.92L339 187.52H336.6C313.5 187.52 290.4 187.82 267.3 187.82L198 188.42H196.5V189.92L192.9 241.52L189 293.12C186.6 327.32 183.6 361.52 180.6 395.72C163.8 402.02 147 408.32 130.5 414.92C113.7 421.52 96.9 428.42 80.1 435.62C71.7 439.22 63.3 442.82 55.2 446.42C46.8 450.32 38.7 453.92 30.6 458.72C28.5 459.92 26.7 461.12 24.6 462.92C24 463.22 23.4 464.12 23.1 464.72L22.2 466.52C21.6 467.72 21 468.62 20.7 469.82C18.9 474.32 17.7 478.82 16.8 483.32C15 492.32 13.5 501.32 12.6 510.62L12.3 567.92V570.62H15L141.3 570.92H267.9C309.9 570.92 352.2 570.62 394.2 570.32L520.5 568.82H521.4V567.92ZM267.9 564.92L141.6 564.62L18 564.92L17.7 510.62C18.6 501.62 19.5 492.92 21.3 483.92C22.2 479.72 23.1 475.22 24.6 471.32C24.9 470.42 25.5 469.22 25.8 468.62L26.4 467.42L27.3 466.52C28.8 465.32 30.6 464.12 32.7 462.92C40.2 458.42 48.6 454.52 56.7 450.62C64.8 446.72 73.2 443.12 81.3 439.52C97.8 432.32 114.6 425.12 131.4 418.22C148.2 411.32 165 404.72 182.1 398.12L182.7 397.82V397.22C185.4 362.72 187.8 328.22 190.8 294.02L195 242.42L199.5 192.32L267.3 192.92C289.5 193.22 311.7 193.22 334.2 193.22L338.1 242.42L342.6 294.02C344.1 311.12 345.6 328.52 347.1 345.62L351.9 397.22V398.12L352.8 398.42L393 413.42C406.2 418.52 419.7 423.62 432.9 429.02C446.1 434.42 459.3 440.12 472.5 445.82C479.1 448.82 485.4 451.82 492 454.82C495.3 456.32 498.3 458.12 501.6 459.62C504.6 461.42 507.9 463.22 510.3 465.62C512.4 468.92 513.6 472.52 514.5 476.12C515.4 479.72 516.3 483.62 516.9 487.22C517.5 491.12 518.1 494.72 518.7 498.62L519.3 504.32L519.6 507.02L519.9 508.52V509.72C519.9 528.62 519.9 547.52 519.6 566.42L394.2 564.92C352.2 565.22 309.9 564.92 267.9 564.92V564.92Z" fill="#9D521B"/>
<path d="M343.2 338.12C343.2 338.12 337.8 407.12 315.9 436.82C315.9 436.82 339.6 361.82 343.2 338.12ZM239.7 386.12C239.7 386.12 254.7 409.82 274.2 416.42C274.2 416.42 245.7 423.02 239.7 386.12ZM188.1 330.92C208.2 407.72 208.2 407.72 213.6 423.02C213.6 423.02 214.8 385.22 188.1 330.92Z" fill="#AC642F"/>
<path d="M0.599998 570.92C0.599998 525.32 4.2 474.32 7.5 468.62C10.5 462.92 22.5 458.72 22.5 458.72C22.5 458.72 33 450.02 43.8 444.32C54.3 438.62 90.9 432.62 90.9 432.62C90.9 432.62 90.9 429.62 92.1 426.92C93.3 424.22 97.8 423.32 107.1 411.32C116.4 399.32 113.4 396.92 115.2 391.22C117 385.52 128.4 386.72 128.4 386.72C128.4 386.72 129.6 368.72 142.8 356.72C156 345.02 183.6 336.92 183.6 336.92C183.6 336.92 183.3 357.62 183.3 370.82C183.3 384.02 179.4 384.62 198.6 408.62C218.1 432.32 235.8 453.92 244.8 459.62C254.1 465.32 266.4 471.62 272.1 488.12C272.1 488.12 277.2 474.92 283.2 470.42C289.2 465.92 301.8 452.42 306.9 447.32C312 442.22 322.8 423.02 329.4 418.82C336 414.32 351.6 399.32 354.3 395.12C357 390.92 351.6 330.02 351.6 330.02C351.6 330.02 372.3 341.12 379.8 346.22C387.3 351.32 394.5 374.72 394.5 374.72C394.5 374.72 401.7 381.02 409.8 387.02C417.9 393.02 423.9 395.72 428.4 404.12C432.9 412.52 430.8 420.02 432.6 423.62C434.4 426.92 436.2 429.62 437.4 431.42C437.4 431.42 488.7 446.72 497.4 450.62C506.1 454.52 514.5 462.62 514.5 462.62C514.5 462.62 523.8 468.32 526.2 492.02C528.6 515.72 531.6 571.22 531.6 571.22L0.599998 570.92V570.92Z" fill="#FBD38D"/>
<path d="M533.7 570.62L530.1 514.82C529.5 505.52 528.9 496.22 527.4 486.92C526.8 482.12 525.6 477.32 523.8 472.82C522.9 470.42 521.7 468.32 520.5 466.22C519.9 465.02 519 464.12 518.1 463.22C517.2 462.32 516.6 461.42 515.4 460.52C510.9 456.32 506.1 452.72 500.7 449.72C498 448.22 495 447.02 492.3 446.12L483.9 442.82L438 429.92C436.5 427.52 434.7 425.12 433.8 422.72C433.5 421.82 433.2 420.32 433.2 418.82C433.2 417.32 432.9 415.82 432.9 414.02C432.3 407.42 429.3 401.12 424.8 396.32C420 391.52 414.6 388.52 409.5 384.92C404.7 381.62 399.9 377.72 395.4 373.82C393.6 368.72 391.8 363.92 389.7 359.12C388.5 356.72 387.3 354.32 385.8 351.92C384.3 349.52 382.8 347.12 380.1 345.32C375.6 342.32 370.8 339.62 366 336.92C361.2 334.22 356.4 331.82 351.6 329.12L349.5 327.92C349.5 327.92 351.6 363.02 352.5 379.82C352.5 384.02 353.7 388.82 353.4 392.72C353.4 393.32 353.4 393.62 353.1 394.22C353.1 394.52 353.1 394.52 352.8 394.82L352.5 395.42C351.9 396.32 351.3 396.92 350.7 397.82C349.5 399.32 348 400.82 346.5 402.32C340.5 408.32 334.5 414.02 327.9 419.12C324.6 421.82 321.9 425.42 319.5 428.72C317.1 432.02 314.7 435.62 312.3 438.92C311.1 440.72 309.9 442.22 308.7 444.02C307.5 445.82 306.3 447.32 304.5 448.52C301.2 450.92 294 461.12 285.6 468.02C283.8 469.22 282 470.12 280.2 471.92C278.7 473.42 277.5 475.22 276.3 477.02C274.5 479.72 273 482.42 271.8 485.42C269.1 478.82 264.3 472.52 258.6 468.02C255.3 465.32 252 463.22 248.4 460.82C244.8 458.72 242.1 455.72 238.8 453.32C225.6 441.32 225.6 435.32 213.9 424.22C208.2 418.52 203.1 411.92 198.3 405.62C195.9 402.32 193.2 399.32 191.1 396.02C188.7 392.72 186.9 389.42 185.7 385.82C184.5 382.52 185.1 378.62 185.4 374.42L185.7 362.12L186 337.82V334.22L182.4 335.12C175.8 336.92 169.5 339.32 163.5 342.02C157.2 344.72 151.2 347.72 145.5 351.62C139.8 355.52 134.7 360.92 131.7 367.22C128.7 372.62 126.9 378.62 126 384.62C123.9 384.62 121.8 384.92 119.4 385.22C117.9 385.52 116.4 386.12 114.9 387.32C114.3 387.92 113.4 388.82 113.1 389.72C112.5 390.62 112.5 391.52 112.2 392.12C111.9 393.62 111.6 395.12 111.6 396.32C111.6 397.52 111.3 398.72 111 399.62C110.4 401.72 108.9 404.12 107.7 406.22C104.7 410.42 101.4 414.62 97.8 418.22C96 420.02 94.2 421.52 91.8 423.62C91.2 424.22 90.6 424.82 90 425.72C89.4 426.62 89.4 427.22 89.1 428.12C88.8 429.02 88.5 429.92 88.5 431.12C84 432.32 66 433.82 61.5 435.32C56.7 437.12 51.9 438.62 47.1 440.72C42.3 442.82 37.8 445.52 33.6 448.52C29.4 451.22 25.5 454.22 21.6 457.52C16.8 459.62 12.3 461.72 8.4 465.32C7.5 466.22 6.6 467.42 5.7 468.92C5.1 470.42 5.1 471.62 4.8 472.82C4.2 475.52 3.9 477.92 3.6 480.32C2.4 490.52 1.8 500.42 1.2 510.62C0.600002 520.82 0.300001 530.72 0.300001 540.92C0.300001 546.02 0 551.12 0 555.92C0 561.02 1.13994e-06 565.82 0.300001 571.22L132 572.42L264.6 573.32C308.7 573.62 353.1 573.62 397.5 573.92C441.9 573.92 486.3 574.22 530.7 573.92H534L533.7 570.62V570.62ZM278.7 477.92C279.9 476.12 281.1 474.62 282.3 473.12C283.5 471.62 285.3 470.72 287.1 469.52C294.3 465.32 297.3 454.82 325.5 441.02C335.1 436.22 343.5 430.22 351.6 423.92C355.8 420.62 359.7 417.32 363.6 414.02C365.4 412.22 367.5 410.42 369 408.02C370.5 405.62 371.7 403.22 372.9 400.82C375 395.72 376.2 390.62 376.5 385.22C376.5 384.02 376.5 382.52 376.2 381.02C375.9 379.82 375.6 378.32 375 377.12C374.1 374.72 372.9 372.32 371.4 370.22C372.3 372.62 372.9 375.02 373.5 377.72C373.8 380.12 374.1 382.52 373.5 384.92C372.6 389.72 370.8 394.52 368.4 398.72C367.2 400.82 366 402.92 364.5 404.72C363 406.52 361.2 408.02 359.4 409.82C355.5 413.12 351.6 416.12 347.7 419.42C343.8 422.72 339.6 425.72 335.4 428.72L329.1 433.22C327 434.72 324.9 435.92 322.8 437.42C318.3 440.12 314.1 443.12 309.6 446.12C309.9 445.82 309.9 445.52 310.2 445.52C311.4 443.72 312.6 442.22 313.8 440.42C316.2 437.12 318.6 433.52 321 430.22C323.4 426.92 326.1 423.32 329.1 420.92C336 416.12 342 410.12 348 404.12L352.5 399.62C353.1 398.72 354 398.12 354.6 397.22C354.6 397.22 360.6 389.72 361.8 386.42C363.3 382.52 364.2 378.32 363.9 373.82C363.3 369.62 361.2 358.52 359.1 354.62C357.6 351.32 353.1 339.92 352.5 333.02C356.7 335.42 360.6 337.52 364.8 339.92C369.6 342.62 374.1 345.32 378.6 348.32C380.4 349.52 381.9 351.92 383.4 354.02C384.6 356.42 385.8 358.52 387 361.22C389.1 366.02 390.9 371.12 392.7 376.22L393 376.52L393.3 376.82C393.6 376.82 393.6 377.12 393.6 377.12V377.42C393.6 380.72 393.3 384.32 392.7 387.62C391.8 394.22 389.7 400.82 387.3 407.12C382.8 419.72 375.6 431.42 364.8 438.32C362.1 440.12 359.4 441.62 356.1 443.42L347.1 448.82L329.7 459.62C326.7 461.42 324 462.92 321 464.42C319.5 465.02 318 465.92 316.5 466.22C315 466.82 313.2 467.12 311.7 467.42C305.1 469.22 298.5 471.02 291.9 473.12C298.8 472.22 305.7 471.32 312.3 470.42C314.1 470.12 315.6 470.12 317.4 469.52C319.2 469.22 321 468.62 322.5 467.72C325.8 466.52 328.8 464.72 332.1 463.22C338.4 459.92 344.1 456.32 350.1 453.02C353.1 451.22 356.1 449.72 359.1 447.92C362.1 446.42 365.4 444.62 368.1 442.52C374.1 438.32 379.2 433.22 383.1 427.22C387 421.22 389.7 414.62 391.8 407.72C393.9 401.12 395.1 394.22 395.4 387.02C395.4 384.02 395.4 380.72 395.1 377.72C399 381.32 403.2 384.62 407.4 387.62C412.5 391.22 417.9 394.22 421.8 398.42C425.7 402.62 428.1 408.02 428.7 414.02C429 415.52 429 417.02 429 418.52C429 420.02 429 421.52 429.9 423.62C427.5 426.32 425.1 429.32 423 432.02C420.3 435.62 417.3 438.92 414.6 442.22C408.9 448.52 402 454.82 396.3 462.02C400.8 460.22 404.7 457.82 408.6 455.42C412.5 452.72 416.1 449.72 419.1 446.42C422.4 442.82 424.8 438.92 426.9 434.72C428.4 431.72 429.9 428.72 430.8 425.42C432 427.82 433.5 430.22 435 432.02L435.3 432.62H435.6C431.1 439.22 426.6 445.82 421.5 452.42C416.1 459.32 410.4 466.22 403.8 471.62C396.9 477.02 389.4 481.22 381.3 484.52C373.2 487.82 365.1 490.82 356.7 493.22C348.3 495.62 339.6 497.12 330.9 498.62C322.2 500.12 313.8 502.22 305.1 503.42C294.9 505.22 290.7 504.92 289.8 504.92C289.8 501.62 289.5 498.62 288.9 496.52C290.7 495.62 293.1 493.82 289.2 492.32C284.4 490.82 279.9 492.92 279.9 495.02C279.6 496.82 281.4 497.12 283.2 497.12C283.8 498.92 283.8 501.02 283.8 503.42C282.9 503.12 282 502.52 281.4 501.92C279.9 500.72 278.7 499.52 277.5 498.02C276.6 496.52 275.4 494.72 275.1 493.22L273.3 486.92C275.1 484.22 276.6 480.92 278.7 477.92V477.92ZM93 434.12V432.32C93 431.42 93.3 429.92 93.6 429.02C93.6 428.42 93.9 427.82 94.2 427.82C94.2 427.52 94.5 427.22 95.1 426.92C96.9 425.42 99.3 423.62 101.1 421.52C105 417.62 108.6 413.42 111.6 408.92C113.1 406.52 114.6 404.12 115.5 401.12C116.4 398.12 116.4 395.12 117 393.02C117 389.72 121.8 389.12 126.3 389.12C126.3 390.92 126.6 392.42 126.6 394.22C127.8 404.12 131.1 414.02 135.9 423.02C141 431.72 147.6 439.82 155.4 445.82C163.2 452.12 172.2 456.92 181.5 459.92C173.1 454.52 165.3 448.82 158.4 442.22C151.5 435.62 145.5 428.12 141 420.02C138.6 415.82 136.8 411.62 135 407.12C133.2 402.62 132 398.12 131.1 393.62C130.8 392.12 130.5 390.32 130.2 388.82L130.5 387.02C131.1 381.02 133.2 374.72 136.2 369.32C139.2 363.62 143.4 359.12 148.5 355.52C153.6 351.92 159.6 349.22 165.6 346.52C170.4 344.42 175.5 342.62 180.6 340.82C180.6 340.82 175.5 353.42 174 356.12C171.9 359.42 171 363.92 171.9 367.82C172.2 369.92 172.8 371.72 173.7 373.22C174.3 375.02 175.2 376.52 176.1 378.02C177.3 380.12 185.1 394.82 187.5 398.42C189.9 401.72 192.6 405.02 195 408.32C200.1 414.62 205.8 423.02 211.8 428.72C224.1 440.72 223.2 447.62 236.7 456.92C240 459.32 243.6 461.42 247.2 463.52C250.8 465.62 254.1 467.72 257.1 470.12C263.4 474.92 268.2 481.52 270.9 489.02L271.2 489.92L270 493.22C269.4 495.02 268.5 497.12 267.3 498.62C266.1 500.42 264.9 501.62 263.7 501.92C263.4 501.92 263.1 502.22 262.5 502.22H258.6C258.6 501.92 258.9 501.62 258.9 501.32C259.8 499.52 260.7 497.72 261.3 496.82C262.5 497.12 264 496.82 264.3 495.92C264.9 494.42 262.5 489.62 259.5 489.92C256.8 489.92 255.6 490.82 258 494.12C256.2 495.92 254.1 498.62 252.6 502.52H250.8C241.5 502.22 232.5 501.32 223.2 500.42C213.9 499.22 204.9 498.32 196.2 495.92C187.5 493.52 149.4 473.42 132.6 465.92C124.2 462.32 115.5 458.72 107.7 453.62C103.8 450.92 100.2 448.22 97.2 444.62C94.8 441.92 92.4 438.32 91.5 434.72L93 434.12V434.12ZM399 567.92C354.9 567.92 311.1 568.22 267 568.52L134.4 569.42L0.900001 570.62C1.2 565.82 1.2 560.72 1.5 555.62L2.1 540.62C2.4 530.42 3 520.52 3.9 510.32C4.5 500.42 5.7 490.22 6.9 480.32C7.2 477.92 7.5 475.52 8.1 473.12C8.4 471.92 8.7 470.72 9 469.82C9.3 468.92 10.2 468.02 10.8 467.42C14.1 464.42 18.9 462.02 23.4 460.22H23.7L24 459.92C27.9 456.92 32.1 453.92 36.3 451.22C40.5 448.52 44.7 445.82 49.2 444.02C58.2 440.12 81.9 437.42 91.5 434.72C92.4 438.62 94.5 441.92 96.9 445.22C99.9 448.82 103.5 452.12 107.1 454.82C114.6 460.52 123.3 464.42 131.7 468.32C148.5 476.42 186.3 498.02 195.3 500.72C199.8 501.92 204.6 503.12 209.1 503.72C213.6 504.32 218.4 505.22 222.9 505.82C232.2 507.02 241.5 507.62 250.8 508.22H251.4V508.52C250.5 517.22 256.2 534.62 257.4 544.82C258.6 555.02 254.4 565.22 256.5 565.82C258.6 566.42 264 568.52 264.9 565.22C265.8 561.92 266.7 532.52 262.2 523.52C259.5 518.12 258.3 512.72 258.3 508.22H263.4C264 508.22 264.9 507.92 265.8 507.92C269.1 507.02 271.2 504.32 272.7 502.22C273 501.92 273 501.62 273.3 501.32C273.3 501.62 273.6 501.62 273.6 501.92C275.1 504.02 276.9 505.82 279 507.32C280.8 508.52 282.6 509.42 284.4 510.02C284.1 511.52 284.1 512.72 283.8 513.92C282.6 519.62 277.8 523.22 280.2 535.52C282.6 547.82 289.5 553.82 290.4 558.62C291.3 563.42 291.6 567.32 293.4 567.32C295.2 567.32 300.6 565.22 301.5 562.52C302.4 559.82 299.1 552.02 294.6 546.32C290.1 540.62 286.2 532.52 286.2 528.02C286.2 524.12 288.9 516.92 290.1 510.92C310.2 509.12 324 505.52 332.7 504.02C341.4 502.52 350.1 500.42 358.5 498.02C367.2 495.32 375.3 492.32 383.4 488.42C391.5 484.52 399.3 480.02 406.2 474.02C412.8 468.02 418.5 460.82 423.6 453.62C428.4 447.02 432.6 440.12 436.5 432.92H436.8L483 446.42L491.1 449.72C493.8 450.92 496.5 452.12 498.9 453.32C503.7 456.02 508.5 459.62 512.7 463.52L513 463.82L514.8 465.62L516.6 468.32C517.8 470.12 518.7 472.22 519.3 474.02C520.8 478.22 522 482.42 522.6 486.92C523.8 495.92 524.4 505.22 525 514.52C526.2 531.92 527.1 549.62 528.3 567.02C484.8 567.62 441.9 567.62 399 567.92V567.92ZM66.3 520.82C65.4 515.42 63.3 510.92 61.2 506.72C56.7 498.02 51.6 489.92 45.9 482.12C42.9 478.22 40.2 474.32 36.6 471.02C33 467.72 29.1 464.72 24.3 463.22C28.5 465.62 31.8 469.22 34.5 472.82C37.2 476.42 39.6 480.62 42.3 484.52C47.1 492.62 51.9 500.72 56.1 509.12C58.2 513.32 60.3 517.52 60.9 521.42C61.8 525.92 62.1 530.72 62.7 535.22C63.6 544.52 64.5 554.12 66 563.72C67.2 554.12 67.5 544.52 67.2 534.92C67.2 530.72 66.9 525.92 66.3 520.82V520.82ZM493.5 468.32C490.8 468.92 488.1 470.42 486.3 472.52C484.5 474.62 483 477.02 481.8 479.12C476.4 487.52 471 496.22 466.2 505.22C465 507.62 464.1 510.02 462.9 512.42C462.3 513.62 462 514.82 461.7 516.32C461.4 517.52 461.1 519.02 460.8 520.22C460.2 525.32 459.6 530.42 459.6 535.52C459.3 545.72 459.3 555.92 459.9 565.82C461.7 555.92 462.9 545.72 464.4 535.82C465 531.02 465.6 525.92 466.5 521.12C467.4 516.62 469.5 512.12 471.6 507.92C476.1 498.92 481.2 490.52 485.7 481.22C486.9 478.82 487.8 476.72 489 474.92C490.2 473.12 492 471.92 494.1 471.02C496.2 470.12 498.9 469.82 501.3 468.62C503.7 467.72 506.1 466.22 507.9 464.72C505.5 465.92 503.1 466.52 500.7 467.12C498.6 467.72 496.2 467.72 493.5 468.32V468.32Z" fill="#DCA950"/>
<path d="M487.2 452.42C476.7 447.92 445.8 443.42 438 438.02C438 438.02 473.4 456.32 485.7 460.22C498 464.12 507.3 462.92 507.3 462.92C507.3 462.92 497.7 456.92 487.2 452.42ZM389.4 378.62C389.4 369.02 382.2 356.42 377.1 350.12C372 343.82 360.9 340.52 356.4 337.22C356.4 337.22 359.1 339.92 364.2 345.62C369.3 351.32 379.2 365.72 381 377.42C382.8 389.12 373.2 411.32 366.6 419.72C360 428.12 334.2 441.32 322.2 448.22C310.5 455.42 299.7 465.02 285.9 472.82C272.1 480.62 276.9 493.52 276.9 493.52C276.9 493.52 279 485.72 283.5 479.72C288 473.72 305.4 461.42 318.3 457.52C331.2 453.62 361.2 435.32 372.9 424.22C384.6 414.02 389.4 388.52 389.4 378.62V378.62ZM399 385.22C399 385.22 404.7 394.22 408.6 399.62C412.5 404.72 415.8 417.32 404.1 436.82C392.4 456.32 359.1 476.42 359.1 476.42C359.1 476.42 387.6 463.52 396.9 456.92C405.9 450.32 423.6 428.42 424.8 423.02C426 417.92 424.2 408.62 420.3 402.32C416.7 395.72 401.7 387.92 399 385.22ZM221.1 453.02C209.4 444.02 186.9 413.42 177.9 401.72C168.9 390.02 168.3 377.72 167.4 369.32C167.4 369.32 160.2 377.12 159 383.72C157.8 390.32 157.8 401.42 168.6 410.42C179.7 419.42 221.1 464.42 236.7 471.62C252.3 478.82 264.6 489.32 264.6 489.32C264.6 489.32 261.3 481.52 257.4 477.62C253.5 473.12 232.8 462.02 221.1 453.02V453.02ZM147.9 467.12C159.6 471.62 191.4 486.02 199.8 489.32C208.2 492.62 245.1 498.32 245.1 498.32C245.1 498.32 209.7 486.62 197.7 481.52C186.3 476.42 147.9 467.12 147.9 467.12V467.12Z" fill="#FFE0A9"/>
<path d="M171.164 159C171.164 159 137.714 129.6 132.344 129.12C127.724 128.7 116.264 153.15 111.194 168.6C109.844 172.68 110.174 177.24 111.944 181.2C116.804 191.91 127.574 214.32 137.234 225.54C137.234 225.54 145.394 227.31 147.974 226.53C150.554 225.78 170.714 209.52 172.784 203.22C174.854 196.92 175.274 169.32 171.164 159V159Z" fill="#CB8D60"/>
<path d="M174.044 170.49C174.584 174.42 174.884 178.41 175.034 182.37C175.184 186.33 175.214 190.32 175.004 194.31C174.909 196.306 174.739 198.297 174.494 200.28C174.344 201.3 174.194 202.29 173.894 203.34C173.594 204.39 173.054 205.44 172.514 206.22C170.354 209.55 167.714 212.07 165.104 214.62C162.464 217.14 159.764 219.51 156.974 221.82C155.564 222.96 154.184 224.07 152.714 225.15C151.994 225.69 151.244 226.2 150.494 226.71L149.294 227.43C148.814 227.67 148.244 227.94 147.704 228C145.694 228.24 144.014 227.97 142.244 227.73C140.504 227.49 138.794 227.16 137.054 226.77L136.664 226.68L136.424 226.38C132.074 221.16 128.534 215.34 125.204 209.43C121.904 203.49 118.904 197.34 116.024 191.13L111.794 181.8C110.294 178.65 109.664 174.93 110.174 171.42C110.354 169.65 110.954 168 111.494 166.41C112.034 164.79 112.604 163.2 113.174 161.61C114.374 158.46 115.544 155.28 116.834 152.16C119.414 145.95 122.114 139.77 125.654 134.1C126.554 132.69 127.514 131.31 128.654 130.02C129.224 129.39 129.854 128.76 130.664 128.25C131.054 128.01 131.564 127.77 132.224 127.77C132.794 127.8 133.184 127.98 133.634 128.13C136.814 129.54 139.244 131.55 141.884 133.41C147.044 137.28 151.994 141.39 156.884 145.68C161.804 149.91 166.544 154.26 171.314 158.82C172.784 162.63 173.474 166.56 174.044 170.49V170.49ZM140.774 135.45C138.224 133.68 135.524 131.67 133.004 130.62C132.734 130.56 132.404 130.38 132.224 130.38C132.104 130.38 131.864 130.44 131.624 130.59C131.114 130.89 130.574 131.34 130.094 131.91C129.074 132.99 128.144 134.31 127.274 135.63C123.794 141.03 120.734 146.94 117.944 152.94C116.564 155.97 115.184 159 113.984 162.12C113.384 163.68 112.784 165.24 112.214 166.83C111.644 168.42 111.074 169.98 110.864 171.63C110.414 174.96 111.044 178.44 112.514 181.41C113.924 184.5 115.454 187.56 116.984 190.56C120.044 196.62 123.344 202.53 126.764 208.29C130.214 214.02 133.844 219.66 138.044 224.55L137.414 224.16C140.684 224.76 144.314 225.45 147.284 225.15C147.614 225.12 147.824 224.97 148.124 224.82L149.174 224.16L151.274 222.66C152.684 221.64 154.064 220.53 155.444 219.42C158.204 217.2 160.874 214.86 163.484 212.4C166.034 209.94 168.674 207.42 170.654 204.57C171.164 203.82 171.524 203.19 171.794 202.41C172.034 201.6 172.214 200.67 172.364 199.74C172.634 197.85 172.874 195.93 172.994 194.01C173.294 190.14 173.414 186.21 173.444 182.31C173.474 178.38 173.324 174.45 172.994 170.55C172.664 166.65 172.184 162.69 171.014 159.03C161.024 151.17 151.004 142.98 140.774 135.45V135.45Z" fill="#BC7746"/>
<path d="M171.944 183.9C171.944 183.9 139.694 143.16 133.634 146.55C127.604 149.91 118.064 169.14 118.094 175.56C118.154 184.98 128.114 200.7 133.124 205.44C138.134 210.18 144.164 213.09 152.174 211.26C160.154 209.43 171.944 183.9 171.944 183.9Z" fill="#BC7746"/>
<path d="M147.404 183.84C146.054 180.06 144.554 176.34 143.054 172.62C141.542 168.915 139.88 165.272 138.074 161.7C136.244 158.16 134.414 154.62 132.164 151.35L131.924 150.99L131.684 151.35C129.434 154.89 127.334 158.49 125.324 162.21C124.334 164.07 123.344 165.96 122.444 167.88C121.514 169.8 120.734 171.81 119.924 173.82L119.804 174.12L119.924 174.48C121.304 178.71 122.804 182.85 124.334 187.02C125.084 189.09 125.954 191.13 126.824 193.17C127.724 195.21 128.594 197.22 129.794 199.2L130.364 200.13L131.114 199.44C132.134 198.51 132.914 197.49 133.724 196.38C134.504 195.27 135.194 194.1 135.794 192.87C136.994 190.41 137.684 187.53 137.594 184.65V184.47L137.534 184.35C136.034 181.38 134.444 178.47 132.884 175.53L132.734 175.62C133.994 178.65 135.224 181.71 136.514 184.71C136.394 187.29 135.614 189.75 134.474 191.94C133.484 193.8 132.164 195.45 130.754 196.89C129.974 195.42 129.254 193.83 128.564 192.21L126.134 186.12C124.544 182.16 123.044 178.14 121.574 174.15C122.924 170.25 124.394 166.38 126.134 162.69C127.844 159 129.794 155.46 132.014 152.16C134.024 155.28 135.524 158.85 137.054 162.33L141.674 173.34L146.354 184.35C147.914 188.01 149.504 191.7 151.154 195.33L151.334 195.24C150.104 191.43 148.784 187.62 147.404 183.84V183.84Z" fill="#9D521B"/>
<path d="M359.984 159C359.984 159 393.434 129.6 398.804 129.12C403.424 128.7 414.884 153.15 419.954 168.6C421.304 172.68 420.974 177.24 419.204 181.2C414.344 191.91 403.574 214.32 393.914 225.54C393.914 225.54 385.754 227.31 383.174 226.53C380.594 225.78 360.434 209.52 358.364 203.22C356.294 196.92 355.874 169.32 359.984 159V159Z" fill="#CB8D60"/>
<path d="M359.894 158.91C364.634 154.35 369.404 150 374.324 145.77C379.184 141.51 384.164 137.37 389.324 133.5C391.964 131.61 394.394 129.63 397.574 128.22C398.054 128.1 398.414 127.89 398.984 127.86C399.614 127.86 400.124 128.1 400.544 128.34C401.384 128.85 402.014 129.45 402.554 130.11C403.694 131.4 404.654 132.78 405.554 134.19C409.094 139.86 411.764 146.07 414.374 152.25C415.664 155.37 416.834 158.52 418.034 161.7C418.604 163.29 419.174 164.88 419.714 166.5C420.254 168.09 420.824 169.74 421.034 171.51C421.544 175.02 420.914 178.74 419.414 181.89L415.184 191.22C412.274 197.4 409.304 203.55 406.004 209.52C402.674 215.46 399.134 221.28 394.784 226.47L394.544 226.77L394.154 226.86C392.414 227.25 390.704 227.55 388.964 227.82C387.194 228.03 385.484 228.3 383.504 228.09C382.964 228.03 382.394 227.76 381.914 227.52L380.714 226.8C379.964 226.29 379.214 225.78 378.494 225.24C377.054 224.16 375.644 223.05 374.234 221.91C371.444 219.63 368.744 217.23 366.104 214.71C363.494 212.13 360.854 209.64 358.694 206.31C358.087 205.428 357.621 204.456 357.314 203.43C357.014 202.38 356.894 201.36 356.714 200.37C356.474 198.36 356.294 196.38 356.204 194.4C355.994 190.41 355.994 186.45 356.174 182.46C356.354 178.5 356.624 174.51 357.164 170.58C357.674 166.56 358.364 162.63 359.894 158.91V158.91ZM360.074 159.09C358.874 162.72 358.394 166.71 358.094 170.61C357.794 174.51 357.644 178.44 357.644 182.37C357.674 186.3 357.824 190.2 358.094 194.07C358.244 196.02 358.454 197.94 358.724 199.8C358.904 200.73 359.054 201.66 359.294 202.47C359.564 203.25 359.894 203.88 360.434 204.63C362.414 207.45 365.054 210 367.604 212.46C370.184 214.89 372.884 217.23 375.644 219.48C377.024 220.59 378.404 221.67 379.814 222.72L381.914 224.22L382.964 224.88C383.264 225.03 383.474 225.18 383.804 225.21C386.774 225.51 390.404 224.82 393.674 224.22L393.044 224.61C397.244 219.72 400.874 214.08 404.324 208.35C407.744 202.59 411.044 196.68 414.104 190.62C415.634 187.59 417.164 184.56 418.574 181.47C420.044 178.5 420.674 175.02 420.224 171.69C420.014 170.01 419.444 168.48 418.874 166.89C418.304 165.3 417.734 163.74 417.104 162.18C415.904 159.06 414.524 156 413.144 153C410.354 146.97 407.294 141.09 403.814 135.69C402.944 134.37 402.014 133.05 400.994 131.97C400.484 131.43 399.944 130.95 399.464 130.65C399.285 130.531 399.079 130.459 398.864 130.44C398.684 130.44 398.354 130.62 398.084 130.68C395.564 131.73 392.864 133.74 390.314 135.51C380.144 142.98 370.124 151.17 360.074 159.09V159.09Z" fill="#BC7746"/>
<path d="M359.204 183.9C359.204 183.9 391.454 143.16 397.514 146.55C403.544 149.91 413.084 169.14 413.054 175.56C412.994 184.98 403.034 200.7 398.024 205.44C393.014 210.18 386.984 213.09 378.974 211.26C370.994 209.43 359.204 183.9 359.204 183.9V183.9Z" fill="#BC7746"/>
<path d="M411.194 173.85C410.414 171.84 409.634 169.83 408.674 167.91C407.774 165.99 406.814 164.1 405.794 162.24C403.784 158.52 401.654 154.92 399.434 151.38L399.194 151.02L398.954 151.38C396.734 154.68 394.874 158.19 393.044 161.73C391.244 165.27 389.624 168.93 388.064 172.65C386.594 176.37 385.064 180.09 383.714 183.87C382.334 187.65 381.014 191.46 379.874 195.3L380.054 195.39C381.704 191.76 383.264 188.07 384.854 184.41L389.534 173.4L394.154 162.39C395.684 158.91 397.184 155.34 399.194 152.22C401.414 155.52 403.364 159.09 405.074 162.75C406.814 166.47 408.314 170.31 409.634 174.21C408.134 178.23 406.664 182.22 405.074 186.18L402.644 192.27C401.954 193.86 401.234 195.48 400.454 196.95C399.044 195.51 397.724 193.86 396.734 192C395.564 189.81 394.814 187.35 394.694 184.77C395.984 181.77 397.214 178.71 398.474 175.68L398.324 175.59C396.764 178.53 395.174 181.44 393.674 184.41L393.614 184.53V184.71C393.524 187.59 394.214 190.47 395.414 192.93C396.014 194.16 396.704 195.36 397.484 196.44C398.264 197.52 399.074 198.57 400.094 199.5L400.844 200.19L401.414 199.26C402.614 197.25 403.484 195.24 404.384 193.23C405.254 191.19 406.094 189.15 406.874 187.08C408.404 182.94 409.904 178.77 411.284 174.54L411.404 174.18L411.194 173.85V173.85Z" fill="#9D521B"/>
<path d="M386.774 82.62C380.174 52.62 367.874 34.62 341.174 20.22C313.274 5.22 265.574 5.82 265.574 5.82C265.574 5.82 217.874 5.22 189.974 20.22C163.574 34.62 150.974 52.62 144.374 82.62C141.674 94.62 144.374 123.42 144.374 123.42C144.374 123.42 151.574 190.32 151.574 209.82C151.574 229.32 149.174 287.22 153.374 293.52C157.574 299.82 224.474 363.72 233.474 368.82C242.474 373.62 288.674 373.62 297.674 368.82C306.674 364.02 373.574 299.82 377.774 293.52C381.974 287.22 379.574 229.32 379.574 209.82C379.574 190.32 386.474 123.12 386.474 123.12C386.474 123.12 389.474 94.62 386.774 82.62V82.62Z" fill="#CB8D60"/>
<path d="M386.774 82.62C380.174 52.62 367.874 34.62 341.174 20.22C313.274 5.22 265.574 5.82 265.574 5.82C265.574 5.82 217.874 5.22 189.974 20.22C163.574 34.62 150.974 52.62 144.374 82.62C141.674 94.62 144.374 123.42 144.374 123.42C144.374 123.42 151.574 190.32 151.574 209.82C151.574 229.32 149.174 287.22 153.374 293.52C157.574 299.82 224.474 363.72 233.474 368.82C242.474 373.62 288.674 373.62 297.674 368.82C306.674 364.02 373.574 299.82 377.774 293.52C381.974 287.22 379.574 229.32 379.574 209.82C379.574 190.32 386.474 123.12 386.474 123.12C386.474 123.12 389.474 94.62 386.774 82.62V82.62ZM386.774 112.92C386.474 116.22 386.174 119.82 385.874 123.12C383.474 143.52 381.074 163.92 378.974 184.32C378.374 189.42 378.074 194.52 377.474 199.62C377.174 204.72 376.874 210.12 376.874 215.22V261.12C376.874 266.22 376.574 271.32 376.574 276.42C376.574 278.82 376.274 281.52 375.974 283.92C375.974 285.12 375.674 286.32 375.674 287.52C375.674 288.72 375.374 289.92 375.074 290.82L374.774 291.42L373.874 292.62L371.474 295.32L366.074 300.72C358.874 307.92 351.374 315.12 344.174 322.02C336.674 328.92 329.474 336.12 321.974 343.02C318.374 346.62 314.474 349.92 310.574 353.22C306.674 356.52 297.344 364.38 296.324 365.13C295.694 365.58 294.974 365.91 294.224 366.09C292.394 366.54 288.644 367.41 286.874 367.62C282.074 368.22 276.974 368.52 271.874 368.82C266.774 369.12 261.674 369.12 256.874 368.82C251.774 368.52 239.774 367.32 238.574 367.02C237.374 366.72 234.614 366.06 233.174 364.62L230.174 362.22C226.274 358.92 222.374 355.62 218.774 352.32C211.274 345.72 203.474 338.82 195.974 331.62C188.474 324.72 180.974 317.82 173.474 310.62C169.874 307.02 165.974 303.72 162.374 300.12L159.674 297.42L156.974 294.72C156.374 294.12 154.424 293.07 153.824 289.29C153.524 286.89 153.374 284.52 153.074 281.82C152.774 279.42 152.774 276.72 152.774 274.32C152.474 269.22 152.474 264.12 152.474 259.02V213.12C152.474 208.02 152.174 202.92 151.874 197.82C150.374 177.42 148.574 157.02 146.774 136.62L146.474 127.92C146.174 125.22 145.874 122.82 145.874 120.42C145.574 115.32 145.274 110.22 145.274 105.12C145.274 100.02 145.274 94.92 145.574 90.12C145.874 87.72 146.174 85.32 146.774 82.92C147.374 80.52 153.674 62.52 154.274 61.62C156.374 57.12 158.774 52.92 161.774 48.72C164.774 44.82 168.074 41.22 171.674 37.62C175.274 34.32 179.174 31.32 183.374 28.62C187.574 25.92 192.074 23.52 196.274 21.42C197.474 20.82 202.874 18.72 202.874 18.72C202.874 18.72 208.874 16.62 210.074 16.32C219.674 13.62 229.574 11.82 239.774 10.62C249.674 9.42 259.874 8.82 270.074 8.82C275.174 8.82 280.274 9.12001 285.374 9.42001C287.774 9.42001 290.474 9.72001 292.874 10.02C295.274 10.32 297.974 10.62 300.374 10.92C310.274 12.12 320.474 13.92 330.074 17.22C334.874 19.02 339.374 20.82 343.874 23.22C345.074 23.82 345.974 24.42 347.174 25.02L350.474 27.12C352.574 28.62 354.674 29.82 356.774 31.32C364.874 37.32 371.774 45.12 376.574 54.12C378.974 58.62 381.074 63.42 382.574 68.22C384.374 73.02 385.274 78.09 386.474 82.89C387.074 86.19 387.404 90.39 387.404 93.99C387.404 97.32 387.074 109.62 386.774 112.92V112.92Z" fill="#9D521B"/>
<path d="M211.334 271.8C211.334 271.8 212.144 277.44 220.754 287.13C229.364 296.82 243.344 317.25 247.124 319.14C250.904 321.03 289.904 322.11 291.764 322.11C293.654 322.11 302.804 301.68 304.664 295.47C306.554 289.29 311.384 276.36 310.844 274.5C310.844 274.5 296.864 278.28 288.254 280.68C279.644 283.11 263.234 285.24 260.534 285.24C258.164 285.24 231.254 279.06 211.334 271.8V271.8Z" fill="black"/>
<path d="M288.554 280.41C279.944 282.84 263.534 284.97 260.834 284.97C258.134 284.97 231.254 279.06 211.334 271.8C211.334 271.8 212.144 277.44 220.754 287.13C222.914 289.56 225.584 292.77 228.284 296.28C235.814 298.17 248.204 301.11 254.924 302.19C254.924 302.19 256.274 298.41 256.814 298.17C257.354 297.9 257.354 302.46 257.354 302.46C257.354 302.46 269.714 305.16 277.004 304.62C277.004 304.62 278.894 303.27 281.294 304.35C281.294 304.35 293.144 302.73 303.074 300.84C303.884 298.68 304.694 296.82 304.964 295.74C306.854 289.56 311.684 276.63 311.144 274.77C311.144 274.47 297.164 277.98 288.554 280.41V280.41Z" fill="white"/>
<path d="M316.244 273.15C314.624 271.53 312.464 269.64 309.524 269.64C308.444 269.64 307.904 270.18 308.444 270.72C308.714 270.99 308.984 271.53 309.254 271.8C301.994 273.96 294.734 275.82 287.204 277.44C278.864 279.33 269.174 282.81 260.294 282.81C252.494 282.81 243.344 279.84 235.814 277.98C228.554 276.09 221.294 273.69 214.034 271.26C214.574 270.99 215.114 270.99 215.654 270.72C216.734 270.18 217.004 269.1 215.384 268.83C213.224 268.29 211.094 269.1 209.474 269.91C207.854 270.72 206.504 272.07 207.314 273.69C207.584 274.23 208.394 274.23 208.934 274.23C209.204 274.23 209.204 274.23 209.474 273.96C210.824 279.6 217.004 285 220.784 290.1C226.694 297.63 232.874 305.16 238.274 312.96C240.164 315.66 241.784 319.68 244.994 321.57C247.694 323.19 251.714 323.19 255.224 323.46C267.314 324.27 279.434 324.81 291.794 324.81C293.414 324.81 294.494 324.27 295.034 323.46C303.644 308.4 309.284 292.53 313.334 276.39C313.874 277.47 314.414 278.55 315.764 279.36C316.574 279.9 317.924 279.9 318.464 279.09C319.754 276.9 317.594 274.47 316.244 273.15V273.15ZM290.174 319.95C281.294 319.95 272.684 319.68 263.804 319.14C259.784 318.87 252.494 319.14 249.284 317.52C246.314 315.9 243.374 311.07 241.214 308.91C236.114 303 231.254 297.06 226.424 291.15C222.134 286.05 214.844 279.3 213.254 273.39C219.974 276.36 227.234 278.76 234.764 280.92C242.834 283.35 252.794 286.56 261.404 287.37C269.204 288.18 279.164 284.67 286.154 282.81C294.224 280.65 302.294 277.98 309.824 275.01C305.774 290.61 298.784 305.67 290.174 319.95V319.95Z" fill="#A06B59"/>
<path d="M314.654 264.54C313.844 264.27 312.764 264.81 313.574 265.35C316.004 266.97 318.404 268.59 320.294 270.45C322.184 272.31 322.994 274.23 324.584 276.09C324.854 276.63 326.204 276.36 326.204 275.82C325.934 271.53 320.294 266.67 314.654 264.54V264.54Z" fill="#C38253"/>
<path d="M212.174 134.52C234.674 134.52 252.674 151.92 252.674 173.52C252.674 195.12 234.674 212.52 212.174 212.52C189.674 212.52 171.674 195.12 171.674 173.52C171.674 151.92 189.674 134.52 212.174 134.52Z" fill="white"/>
<path d="M212.174 157.62C220.874 157.62 228.074 164.82 228.074 173.52C228.074 182.22 220.874 189.42 212.174 189.42C203.474 189.42 196.274 182.22 196.274 173.52C196.274 164.82 203.474 157.62 212.174 157.62Z" fill="#422F17"/>
<path d="M212.174 190.32C202.874 190.32 195.374 182.82 195.374 173.82C195.374 164.52 202.874 157.02 211.874 157.02C221.174 157.02 228.674 164.52 228.674 173.52C228.974 182.82 221.474 190.32 212.174 190.32ZM212.174 158.52C203.774 158.52 197.174 165.42 197.174 173.82C197.174 182.22 204.074 188.82 212.474 188.82C220.874 188.82 227.474 181.92 227.474 173.52C227.174 165.12 220.274 158.52 212.174 158.52Z" fill="#3B2811"/>
<path d="M212.174 160.02C219.674 160.02 225.674 166.02 225.674 173.52C225.674 181.02 219.674 187.02 212.174 187.02C204.674 187.02 198.674 181.02 198.674 173.52C198.674 166.02 204.674 160.02 212.174 160.02Z" fill="#4A361D"/>
<path d="M212.174 164.82C216.974 164.82 220.874 168.72 220.874 173.52C220.874 178.32 216.974 182.22 212.174 182.22C207.374 182.22 203.474 178.32 203.474 173.52C203.474 168.72 207.374 164.82 212.174 164.82Z" fill="black"/>
<path d="M208.274 164.82C210.074 164.82 211.274 166.02 211.274 167.82C211.274 169.62 210.074 170.82 208.274 170.82C206.474 170.82 205.274 169.62 205.274 167.82C205.274 166.02 206.474 164.82 208.274 164.82ZM218.174 178.62C218.774 178.62 219.374 179.22 219.374 179.82C219.374 180.42 218.774 181.02 218.174 181.02C217.574 181.02 216.974 180.42 216.974 179.82C216.974 179.22 217.574 178.62 218.174 178.62Z" fill="white"/>
<path d="M212.174 133.02C188.774 133.02 169.874 151.32 169.874 173.82C169.874 196.32 188.774 214.62 212.174 214.62C235.574 214.62 254.474 196.32 254.474 173.82C254.474 151.32 235.574 133.02 212.174 133.02ZM212.174 198.72C195.674 198.72 180.074 190.32 179.774 187.62C179.174 184.62 182.474 175.02 189.374 167.22C196.574 159.42 213.374 156.72 227.774 162.72C242.174 168.72 245.474 186.72 245.474 186.72C245.774 192.12 228.674 198.72 212.174 198.72V198.72Z" fill="#CB8D60"/>
<path d="M239.774 172.62C241.874 172.62 249.074 172.62 246.974 172.02C243.374 170.82 230.174 160.62 226.574 159.12C222.974 157.62 210.074 155.22 207.974 155.22C205.874 155.22 186.674 163.62 184.874 164.82C183.074 166.02 178.274 182.82 177.074 183.72C176.474 184.32 178.274 185.22 179.474 185.82C179.474 186.12 179.474 186.42 179.174 186.72V187.32C179.174 187.62 179.474 187.92 179.474 188.22C179.774 188.82 180.074 189.12 180.374 189.42C180.974 190.02 181.874 190.62 182.474 191.22C183.974 192.12 185.474 193.02 187.274 193.92C193.574 196.92 200.474 198.72 207.674 199.32C214.874 199.92 221.774 199.02 228.674 197.22C231.974 196.32 235.274 195.12 238.574 193.62C240.074 192.72 241.574 192.12 243.074 190.92L244.874 189.12C245.474 188.52 245.774 187.62 245.774 186.72C245.174 183.42 243.674 180.12 242.174 176.82C241.274 175.62 240.674 174.12 239.774 172.62V172.62ZM244.574 189.12L242.774 190.92C241.274 191.82 239.774 192.72 238.274 193.32C234.974 194.52 231.674 195.72 228.374 196.32C221.774 197.52 214.574 198.42 207.974 197.82C201.074 197.22 194.474 195.42 188.174 192.72C186.674 192.12 185.174 191.22 183.674 190.32C183.074 189.72 182.174 189.42 181.574 188.82C181.274 188.52 180.974 188.22 180.974 187.92C180.974 187.62 180.974 187.62 180.674 187.62V187.02C180.674 186.42 180.674 185.82 180.974 185.22C182.174 182.22 185.774 173.82 188.474 170.22C192.074 165.72 199.274 160.32 209.174 160.32C214.274 160.32 218.774 160.92 222.674 161.82C224.174 162.42 225.974 162.72 227.474 163.62C230.774 164.82 233.474 166.92 235.874 169.02C240.674 173.82 244.274 180.12 245.774 186.72C245.474 187.62 245.174 188.52 244.574 189.12Z" fill="black"/>
<path d="M318.974 134.52C341.474 134.52 359.474 151.92 359.474 173.52C359.474 195.12 341.474 212.52 318.974 212.52C296.474 212.52 278.474 195.12 278.474 173.52C278.474 151.92 296.474 134.52 318.974 134.52V134.52Z" fill="white"/>
<path d="M318.974 159.42C326.774 159.42 333.074 165.72 333.074 173.52C333.074 181.32 326.774 187.62 318.974 187.62C311.174 187.62 304.874 181.32 304.874 173.52C304.874 165.72 311.174 159.42 318.974 159.42Z" fill="#3B2811"/>
<path d="M318.974 188.22C310.874 188.22 304.274 181.62 304.274 173.52C304.274 165.42 310.874 158.82 318.974 158.82C327.074 158.82 333.674 165.42 333.674 173.52C333.674 181.62 327.074 188.22 318.974 188.22ZM318.974 160.32C311.774 160.32 305.774 166.32 305.774 173.52C305.774 180.72 311.774 186.72 318.974 186.72C326.174 186.72 332.174 180.72 332.174 173.52C332.174 166.32 326.174 160.32 318.974 160.32Z" fill="#2B1C08"/>
<path d="M318.974 161.52C325.574 161.52 330.974 166.92 330.974 173.52C330.974 180.12 325.574 185.52 318.974 185.52C312.374 185.52 306.974 180.12 306.974 173.52C306.974 166.92 312.374 161.52 318.974 161.52Z" fill="#422F17"/>
<path d="M318.974 163.32C324.674 163.32 329.174 167.82 329.174 173.52C329.174 179.22 324.674 183.72 318.974 183.72C313.274 183.72 308.774 179.22 308.774 173.52C308.774 167.82 313.274 163.32 318.974 163.32Z" fill="#4A361D"/>
<path d="M318.974 166.02C323.174 166.02 326.474 169.32 326.474 173.52C326.474 177.72 323.174 181.02 318.974 181.02C314.774 181.02 311.474 177.72 311.474 173.52C311.474 169.32 314.774 166.02 318.974 166.02Z" fill="black"/>
<path d="M315.674 166.02C317.174 166.02 318.374 167.22 318.374 168.72C318.374 170.22 317.174 171.42 315.674 171.42C314.174 171.42 312.974 170.22 312.974 168.72C312.974 167.22 314.174 166.02 315.674 166.02ZM324.374 178.02C324.974 178.02 325.274 178.32 325.274 178.92C325.274 179.52 324.974 179.82 324.374 179.82C323.774 179.82 323.474 179.52 323.474 178.92C323.474 178.32 323.774 178.02 324.374 178.02Z" fill="white"/>
<path d="M318.974 133.02C295.574 133.02 276.674 151.32 276.674 173.82C276.674 196.32 295.574 214.62 318.974 214.62C342.374 214.62 361.274 196.32 361.274 173.82C361.274 151.32 342.374 133.02 318.974 133.02V133.02ZM319.874 194.82C303.374 194.82 285.974 189.12 286.574 184.62C286.574 184.62 290.174 169.32 304.274 163.92C318.374 158.52 333.074 161.82 340.274 168.42C347.474 175.32 352.874 182.82 352.274 185.22C351.974 187.62 336.374 194.82 319.874 194.82V194.82Z" fill="#CB8D60"/>
<path d="M355.274 181.92C354.374 181.02 344.774 169.92 342.974 169.02C341.174 168.12 330.974 159.42 328.574 159.42C326.174 159.42 309.374 159.42 305.774 160.62C302.174 161.82 293.174 169.02 291.674 170.82C290.774 172.02 292.274 171.42 293.774 170.82C292.574 172.32 291.374 173.82 290.474 175.32C288.674 178.32 287.474 181.32 286.574 184.32C286.574 185.22 286.874 186.12 287.474 186.72C288.074 187.32 288.674 187.92 289.574 188.22C291.074 189.12 292.574 189.72 294.074 190.62C297.074 191.82 300.374 193.02 303.674 193.62C310.274 195.12 316.874 196.02 323.474 195.72C330.074 195.42 336.674 193.92 342.974 191.82C345.974 190.62 349.274 189.42 351.974 187.32L352.874 186.42C353.174 186.12 353.174 185.82 353.174 185.52V184.62C353.174 184.32 353.174 184.32 352.874 184.02C354.074 183.42 355.874 182.82 355.274 181.92V181.92ZM351.674 185.22C351.374 185.52 351.374 185.82 351.074 185.82C348.674 187.62 345.374 188.82 342.374 190.02C336.074 192.12 329.774 193.32 323.174 193.92C316.574 194.22 310.274 193.62 303.674 192.72C300.374 192.12 297.374 191.52 294.074 190.32C292.574 189.72 291.074 189.12 289.574 188.22C288.974 187.92 288.074 187.32 287.474 186.72C286.874 186.12 286.574 185.52 286.574 184.62C288.374 178.32 292.274 172.62 297.374 168.72C300.074 166.62 302.774 165.42 305.774 164.22C308.474 163.32 310.874 162.72 313.574 162.42C314.174 162.42 315.074 162.12 315.674 162.12H317.774C323.174 161.82 328.874 162.72 333.674 164.82C337.574 167.22 340.574 170.22 342.374 172.32C345.074 175.32 349.274 181.02 350.774 183.42C351.074 184.02 351.074 184.32 351.074 184.92C351.674 184.62 351.674 184.92 351.674 185.22V185.22Z" fill="black"/>
<path d="M240.404 124.26C240.404 124.26 242.444 141.93 240.614 145.02C238.754 148.11 219.854 137.85 210.824 132.84C201.764 127.8 193.334 125.91 189.284 128.85C185.234 131.79 171.764 145.26 171.764 145.26C171.764 145.26 184.124 112.59 185.594 110.49C187.064 108.39 206.414 114.99 206.414 114.99C206.414 114.99 212.324 119.76 215.654 123.45L212.444 115.68C212.444 115.68 234.944 122.76 236.234 124.44C237.464 126.15 239.654 132.96 239.654 132.96L240.404 124.26V124.26Z" fill="#2A232B"/>
<path d="M240.374 124.17C240.344 124.23 240.374 124.29 240.344 124.35C240.314 124.32 240.284 124.32 240.284 124.32V124.38L240.314 124.5L240.344 124.62C240.194 125.85 240.044 127.08 239.864 128.4C239.714 129.39 239.594 130.44 239.444 131.46C239.114 130.41 238.784 129.36 238.424 128.31C238.184 127.56 237.884 126.81 237.584 126.12C237.434 125.76 237.284 125.37 237.074 125.01C236.864 124.62 236.774 124.32 236.354 123.87C235.964 123.51 235.664 123.39 235.334 123.21C235.004 123.03 234.674 122.88 234.374 122.7C233.714 122.4 233.054 122.1 232.424 121.83C231.104 121.26 229.814 120.78 228.494 120.24C223.214 118.29 217.934 116.46 212.624 114.69L210.944 114.12L211.694 115.98L213.134 119.55C212.654 119.13 212.174 118.65 211.724 118.23C210.164 116.82 208.574 115.47 206.954 114.15L206.804 114.03L206.654 113.97C202.086 112.425 197.452 111.084 192.764 109.95C191.594 109.71 190.424 109.44 189.194 109.29C188.588 109.199 187.977 109.139 187.364 109.11C187.064 109.11 186.734 109.11 186.404 109.17C186.044 109.23 185.714 109.26 185.234 109.62C184.934 109.89 184.904 110.04 184.784 110.22L184.574 110.7L184.184 111.57L183.464 113.31L182.084 116.82C180.254 121.5 178.484 126.24 176.744 130.95L171.554 145.14L170.984 146.73L172.094 145.62C174.944 142.74 177.824 139.89 180.734 137.1C183.674 134.37 186.614 131.49 189.764 129.21C191.354 128.19 193.334 128.01 195.254 128.13C197.204 128.28 199.154 128.73 201.104 129.36C204.974 130.62 208.664 132.57 212.354 134.7C216.074 136.8 219.824 138.78 223.634 140.64C227.444 142.5 231.254 144.3 235.274 145.59C236.264 145.89 237.284 146.19 238.364 146.31C238.904 146.37 239.444 146.4 240.014 146.31C240.314 146.25 240.614 146.13 240.884 145.92C241.004 145.8 241.154 145.59 241.244 145.47C241.304 145.35 241.394 145.17 241.424 145.02C241.814 143.82 241.874 142.68 241.934 141.54C241.964 140.4 241.964 139.26 241.934 138.09C241.874 135.78 241.634 133.5 241.424 131.22L241.064 127.8L240.854 126.09L240.734 125.22L240.674 124.8L240.644 124.59L240.614 124.47V124.41C240.494 124.26 240.404 124.17 240.374 124.17V124.17ZM240.434 126L240.554 127.68L240.764 131.1C240.884 133.35 240.914 135.63 240.944 137.88C240.944 139.02 240.914 140.13 240.824 141.21C240.734 142.29 240.644 143.43 240.314 144.3C240.224 144.54 240.134 144.69 240.044 144.75C239.924 144.84 239.804 144.9 239.594 144.93C239.204 144.99 238.754 144.96 238.274 144.9C237.344 144.72 236.354 144.45 235.424 144.12C231.584 142.77 227.804 140.88 224.054 139.02C220.304 137.13 216.584 135.09 212.864 133.08C211.004 132.06 209.114 131.04 207.164 130.17C205.214 129.33 203.264 128.58 201.224 127.98C199.214 127.41 197.174 127.02 195.134 126.96C193.124 126.93 190.994 127.2 189.254 128.43C187.604 129.69 186.194 131.04 184.694 132.42L180.284 136.59C177.764 138.99 175.214 141.45 172.724 143.88L177.674 131.52L183.374 117.63L184.844 114.21L185.594 112.53L185.954 111.69L186.164 111.33C186.194 111.24 186.314 111.09 186.224 111.21C186.224 111.21 186.464 111.12 186.674 111.09C186.914 111.09 187.154 111.06 187.424 111.09C187.934 111.12 188.534 111.18 189.104 111.24C190.244 111.42 191.384 111.66 192.524 111.96C197.054 113.07 201.554 114.54 206.054 116.01C207.584 117.27 209.114 118.59 210.614 119.91C212.144 121.29 213.674 122.7 215.054 124.2L218.474 127.92L216.464 123.12L213.974 117.15C218.744 118.59 223.484 120.09 228.194 121.71C229.514 122.16 230.834 122.61 232.124 123.09C232.784 123.33 233.444 123.6 234.044 123.84C234.374 123.96 234.674 124.14 234.974 124.26C235.274 124.38 235.604 124.56 235.784 124.74C235.814 124.77 235.784 124.77 235.814 124.77L235.904 124.89L236.024 125.07L236.294 125.55C236.474 125.88 236.624 126.21 236.774 126.57C237.074 127.29 237.374 127.98 237.674 128.7C238.244 130.14 238.784 131.58 239.294 133.05L239.804 134.49L239.894 133.02C239.984 131.64 240.074 130.29 240.134 128.85C240.194 127.62 240.254 126.33 240.374 125.04V125.22L240.434 126V126Z" fill="#1B141C"/>
<path d="M292.004 132.3C292.004 132.3 291.884 147.6 294.044 150.18C296.204 152.79 313.754 143.31 322.154 138.69C330.554 134.04 338.654 132.12 342.974 134.52C347.294 136.92 362.054 148.08 362.054 148.08C362.054 148.08 346.304 120.36 344.654 118.59C342.974 116.82 324.584 123.15 324.584 123.15C324.584 123.15 319.244 127.47 316.394 130.74L318.704 123.93C318.704 123.93 297.254 130.77 296.174 132.24C295.124 133.71 293.714 139.68 293.714 139.68L292.004 132.3V132.3Z" fill="#2A232B"/>
<path d="M362.324 147.93L355.664 135.87C353.444 131.82 351.194 127.86 348.884 123.87L347.114 120.9L346.184 119.43L345.704 118.71L345.434 118.35C345.314 118.23 345.254 118.05 344.924 117.87C344.414 117.57 344.054 117.57 343.724 117.51C343.405 117.48 343.084 117.48 342.764 117.51C342.134 117.54 341.564 117.63 340.964 117.69C339.824 117.87 338.654 118.14 337.544 118.38C333.044 119.49 328.634 120.81 324.254 122.28L324.074 122.34L323.954 122.43C322.514 123.63 321.074 124.83 319.694 126.12L318.434 127.29L319.484 124.17L320.024 122.58L318.404 123.12C313.334 124.83 308.324 126.54 303.314 128.43C302.054 128.91 300.824 129.39 299.594 129.93C298.994 130.2 298.364 130.47 297.734 130.77C297.434 130.92 297.104 131.07 296.834 131.22C296.504 131.4 296.234 131.55 295.904 131.82C295.574 132.24 295.484 132.48 295.334 132.84C295.214 133.14 295.094 133.5 294.944 133.8C294.734 134.46 294.524 135.09 294.344 135.72C294.104 136.62 293.894 137.55 293.654 138.45C293.414 137.55 293.174 136.68 292.904 135.81C292.574 134.73 292.274 133.65 292.004 132.57V132.33C292.004 132.33 291.974 132.36 291.944 132.36C291.914 132.3 291.914 132.27 291.884 132.18C291.854 132.18 291.794 132.27 291.794 132.3V132.63L291.764 132.99L291.734 133.74L291.704 135.21V138.18C291.734 140.16 291.794 142.11 291.974 144.09C292.064 145.05 292.184 146.07 292.364 147.06C292.574 148.05 292.724 149.04 293.234 150.03C293.294 150.18 293.384 150.27 293.474 150.39C293.534 150.51 293.714 150.66 293.894 150.75C294.224 150.96 294.524 151.02 294.794 151.05C295.394 151.14 295.904 151.05 296.444 151.02C297.464 150.87 298.454 150.6 299.414 150.3C303.224 149.04 306.824 147.39 310.334 145.62C313.874 143.91 317.384 142.05 320.804 140.13C324.224 138.15 327.674 136.38 331.334 135.15C333.164 134.55 335.054 134.1 336.974 133.89C338.864 133.71 340.844 133.8 342.524 134.64C345.914 136.5 349.124 138.87 352.304 141.12C355.484 143.43 358.634 145.77 361.754 148.2L362.984 149.13L362.324 147.93V147.93ZM347.924 137.43C346.304 136.29 344.714 135.18 342.974 134.13C341.144 133.14 339.014 132.96 337.004 133.05C334.964 133.17 332.984 133.59 331.094 134.13C329.174 134.7 327.314 135.39 325.484 136.2C323.654 137.01 321.884 137.97 320.174 138.9C316.724 140.76 313.244 142.62 309.764 144.39C306.254 146.13 302.744 147.9 299.084 149.16C298.184 149.46 297.254 149.76 296.354 149.94C295.904 150.03 295.424 150.06 295.034 150.03C294.854 150.03 294.674 149.97 294.584 149.88C294.456 149.786 294.353 149.663 294.284 149.52C293.864 148.77 293.624 147.84 293.414 146.88C293.204 145.95 293.054 144.99 292.964 144C292.724 142.05 292.514 140.1 292.394 138.15L292.214 135.21L292.124 133.74L292.094 132.99V132.84C292.334 133.95 292.574 135.06 292.754 136.11C292.964 137.34 293.204 138.51 293.444 139.71L293.714 140.97L294.044 139.68C294.374 138.39 294.764 137.13 295.184 135.87C295.394 135.24 295.604 134.61 295.844 134.01C295.964 133.71 296.084 133.41 296.234 133.11L296.444 132.69L296.564 132.51L296.624 132.42L296.654 132.39C296.804 132.27 297.134 132.09 297.404 131.94C297.674 131.79 298.004 131.67 298.304 131.52C298.904 131.25 299.534 131.04 300.134 130.8C301.394 130.35 302.624 129.9 303.884 129.45C308.354 127.92 312.884 126.48 317.384 125.07L315.584 130.26L314.144 134.46L317.144 131.16C318.344 129.81 319.694 128.55 321.074 127.32C322.394 126.12 323.774 124.92 325.124 123.81C329.414 122.37 333.704 120.99 338.024 119.88C339.134 119.61 340.214 119.34 341.324 119.19C341.864 119.1 342.404 119.01 342.944 118.98C343.184 118.95 343.484 118.95 343.694 118.98C343.904 118.98 344.144 119.04 344.144 119.04C344.084 118.95 344.174 119.07 344.234 119.16L344.474 119.49L344.924 120.18L345.854 121.59L347.654 124.5L354.764 136.29L361.004 146.76C358.274 144.72 355.514 142.71 352.754 140.76L347.924 137.43V137.43Z" fill="#1B141C"/>
<path d="M388.968 195.881C386.688 180.491 380.988 171.371 373.578 171.941C366.168 172.511 365.598 181.916 365.028 202.721C363.033 219.536 360.468 234.356 354.198 245.186C347.928 256.016 344.508 270.266 336.243 269.981C330.543 269.696 334.248 261.146 319.143 256.301C306.318 252.311 297.483 257.726 285.513 261.146C269.838 265.706 276.963 265.136 264.708 265.991C263.568 265.991 254.733 264.851 239.628 259.436C224.523 254.021 201.723 247.751 200.298 268.271C198.873 288.791 174.363 249.176 171.513 226.661C168.663 204.146 164.673 189.326 161.823 181.346C158.973 173.366 150.423 169.946 147.003 176.501C143.583 183.056 139.023 216.686 139.023 249.461C139.023 281.951 143.868 301.046 148.998 316.436C154.128 331.826 215.973 378.851 227.943 388.826C239.913 398.801 295.488 396.806 308.028 392.246C320.568 387.686 373.293 339.806 381.843 327.551C398.373 304.181 391.248 211.556 388.968 195.881V195.881ZM307.173 315.011C299.478 328.691 292.923 336.386 288.933 338.666C284.658 340.946 276.963 341.801 274.683 338.381C272.403 334.961 273.543 327.266 273.543 327.266C266.988 327.266 255.873 326.126 255.873 326.126C255.873 326.126 256.728 330.971 255.303 336.101C253.878 341.231 244.473 341.231 237.918 336.101C231.363 330.971 218.538 310.736 212.838 299.906C207.138 289.076 203.433 276.821 208.563 273.686C213.693 270.551 220.533 277.391 234.498 280.526C248.463 283.661 262.998 280.526 262.998 280.526C278.958 283.946 291.498 280.241 299.193 278.816C310.878 276.536 319.713 267.701 322.848 273.116C325.983 278.531 315.153 301.616 307.173 315.011V315.011Z" fill="#2A232B"/>
<path d="M392.958 253.451C392.673 234.356 391.818 214.976 389.253 196.166C388.398 190.751 387.258 185.336 384.693 180.491C383.553 178.211 381.843 175.646 379.848 173.936C377.568 172.226 374.718 171.371 371.868 172.226C369.018 173.081 367.593 175.931 366.738 178.496C365.883 181.061 365.598 183.911 365.313 186.476C364.743 191.891 364.743 197.306 364.458 202.721C363.318 212.126 361.893 221.816 359.328 230.936C357.903 235.496 356.193 240.056 353.913 244.046C351.348 248.036 349.353 252.596 347.358 256.871C346.218 259.151 345.363 261.146 343.938 263.141C342.798 265.136 341.373 266.846 339.378 267.986C338.523 268.556 337.383 268.841 336.528 268.841C335.388 268.841 334.533 268.841 333.963 267.986C332.823 266.561 331.968 263.996 330.258 262.001C327.123 258.011 322.278 255.731 317.433 254.306C312.588 252.881 307.458 252.881 302.613 254.021C297.768 255.161 293.208 256.871 288.648 258.296C284.088 259.721 279.528 261.146 274.968 262.856C273.828 263.141 272.688 263.711 271.833 263.711C270.693 263.996 269.553 263.996 268.413 263.996L264.708 264.281C263.853 264.281 262.428 263.996 261.288 263.996C256.728 263.141 252.168 262.001 247.608 260.576C243.048 259.151 238.488 257.441 233.928 256.016C229.368 254.591 224.523 253.451 219.678 252.881C218.538 252.881 217.113 252.596 215.973 252.596C214.833 252.596 213.408 252.596 212.268 252.881C211.128 252.881 209.703 253.451 208.563 253.736C207.423 254.306 206.283 254.591 205.143 255.446C202.863 256.871 201.438 259.151 200.298 261.431C200.013 262.571 199.443 263.711 199.158 265.136C198.873 266.276 198.873 267.701 198.588 268.841C198.303 271.121 197.733 273.686 195.738 272.831C193.743 272.261 192.033 270.551 190.608 268.841C187.473 265.421 184.908 261.146 182.628 257.156C178.068 248.891 174.078 240.056 172.083 230.651C171.228 226.091 170.658 221.246 169.803 216.401C168.948 211.556 168.093 206.996 167.238 202.151C166.383 197.306 164.958 192.746 163.818 188.186C163.248 185.906 162.393 183.626 161.823 181.346C160.968 179.066 159.828 176.786 157.833 175.076C156.123 173.366 153.558 172.226 150.993 172.511C149.568 172.796 148.428 173.366 147.573 174.221C146.718 175.076 146.148 176.216 145.578 177.356C143.868 181.916 143.298 186.761 142.443 191.321C141.018 200.726 139.878 210.416 139.023 219.821C137.598 238.916 137.028 258.296 139.023 277.391C139.878 287.081 141.873 296.486 144.153 305.891C144.723 308.171 145.578 310.451 146.148 312.731L147.288 316.151L148.713 318.146L149.568 319.856C152.133 324.131 155.553 327.836 158.688 331.256C165.243 338.381 172.653 344.651 179.778 350.921C186.903 357.191 194.313 363.461 201.723 369.446C209.133 375.431 216.543 381.416 224.238 387.401C225.093 388.256 225.948 388.826 227.088 389.681C228.228 390.251 229.368 391.106 230.508 391.676C231.648 392.246 232.788 392.531 233.928 393.101L237.348 393.956C242.193 395.096 247.038 395.666 251.883 396.236C261.573 397.091 271.263 397.091 280.953 396.806C285.798 396.521 290.643 396.236 295.488 395.666C297.768 395.381 300.333 395.096 302.613 394.526C304.893 393.956 307.458 393.671 309.738 392.531C314.298 390.251 318.003 387.401 321.993 384.551C325.698 381.701 329.688 378.566 333.393 375.431C340.803 369.161 347.928 362.891 355.053 356.336C362.178 349.781 369.018 343.226 375.573 336.101C377.283 334.391 378.708 332.681 380.418 330.686C381.273 329.831 381.843 328.691 382.698 327.836C383.268 326.696 384.123 325.841 384.693 324.701C386.973 320.141 388.113 315.581 389.253 310.736C391.248 301.331 392.103 291.641 392.388 281.951C392.958 272.546 392.958 262.856 392.958 253.451V253.451ZM391.248 281.951C390.678 291.356 389.538 301.046 387.543 310.451C386.403 315.011 384.978 319.571 382.983 323.846C380.988 327.836 377.283 331.256 374.148 334.676C367.593 341.516 360.468 348.071 353.628 354.626C346.788 361.181 339.378 367.451 331.968 373.436C328.263 376.571 324.558 379.421 320.853 382.271C317.148 385.121 313.158 387.971 309.168 389.966C305.178 391.676 300.333 392.246 295.488 392.816C290.643 393.386 286.083 393.671 281.238 393.956C271.833 394.241 262.143 394.241 252.738 393.386C247.893 393.101 243.333 392.246 238.773 391.391L235.353 390.536C234.213 390.251 233.358 389.681 232.218 389.396C231.078 389.111 230.223 388.256 229.368 387.686C228.513 387.116 227.373 386.261 226.518 385.406C218.823 379.421 211.413 373.721 204.003 367.451C189.183 355.481 174.363 343.226 160.968 329.546C157.548 326.126 154.413 322.706 151.848 318.716L150.993 317.291L150.423 315.866L149.283 312.446C148.428 310.166 147.858 307.886 147.288 305.606C144.723 296.486 143.013 287.081 141.873 277.676C139.593 258.581 139.878 239.486 141.303 220.391C141.873 210.986 143.013 201.296 144.438 191.891C145.293 187.046 145.863 182.486 147.573 177.926C148.143 175.646 149.853 173.936 152.133 173.651C154.413 173.366 156.693 174.506 158.403 175.931C161.823 179.066 162.678 184.196 164.103 188.471C165.243 193.031 166.383 197.591 167.523 202.436C168.378 206.996 169.233 211.841 170.088 216.686C170.943 221.531 171.228 226.091 172.368 230.936C174.648 240.341 178.353 249.176 182.913 257.726C185.193 262.001 187.758 265.991 190.893 269.696C192.603 271.406 194.028 273.401 196.878 274.541C197.448 274.826 198.303 274.826 199.158 274.541L200.013 273.686C200.298 273.401 200.583 273.116 200.583 272.831C201.153 271.691 201.438 270.266 201.723 269.126C202.008 267.986 202.008 266.846 202.293 265.706C202.293 264.566 202.863 263.426 203.148 262.571C204.003 260.576 205.428 258.581 207.423 257.441C208.278 256.871 209.418 256.586 210.558 256.016C211.698 255.731 212.838 255.446 213.978 255.446C215.118 255.161 216.258 255.161 217.398 255.161C218.538 255.161 219.678 255.161 220.818 255.446C225.378 256.016 229.938 257.156 234.498 258.581C239.058 260.006 243.618 262.001 248.178 263.426C252.738 264.851 257.298 266.276 262.143 267.131C263.283 267.416 264.423 267.701 265.848 267.416L269.553 267.131C270.693 267.131 271.833 266.846 273.258 266.846C274.683 266.561 275.823 266.276 276.963 265.706C281.523 263.996 286.083 262.856 290.643 261.431C295.203 260.006 299.763 258.011 304.323 257.156C308.883 256.016 313.443 256.016 318.003 257.441C322.563 258.581 326.838 260.576 329.688 263.996C330.258 264.851 330.828 265.706 331.683 266.846C332.253 267.986 332.823 269.126 333.678 270.266C334.818 271.406 336.528 271.976 337.668 271.691C339.093 271.691 340.233 271.121 341.373 270.551C343.653 269.126 345.078 266.846 346.503 264.851C347.643 262.856 348.783 260.576 349.923 258.296C351.918 254.021 353.913 249.461 356.193 245.471C358.473 241.196 360.183 236.636 361.323 231.791C363.888 222.386 365.028 212.981 366.168 203.291C366.168 197.876 366.453 192.461 366.738 187.046C367.023 184.481 367.308 181.631 368.163 179.066C368.733 176.501 370.443 173.936 373.008 173.081C375.573 172.226 378.423 173.081 380.418 174.791C382.698 176.501 384.123 178.781 385.263 181.061C387.828 185.906 388.968 191.321 389.823 196.736C390.963 206.141 391.533 215.831 392.103 225.521C392.673 235.211 392.958 244.616 392.958 254.306C392.103 262.856 391.818 272.546 391.248 281.951V281.951ZM324.273 274.826C324.273 274.256 323.988 273.401 323.703 272.831C323.133 272.261 322.848 271.691 322.278 271.406C321.138 270.551 319.713 270.551 318.858 270.836C315.723 270.266 312.873 269.696 310.308 268.841C307.743 267.986 305.178 266.561 302.613 264.851C304.038 267.701 306.603 269.981 309.453 271.121C311.448 271.976 313.728 272.261 316.008 271.976C315.723 272.261 315.153 272.261 314.868 272.546C310.593 274.256 306.603 276.251 302.613 277.676C300.618 278.246 298.338 278.816 296.343 279.101C295.203 279.386 293.778 279.671 292.638 279.956C290.358 279.101 288.078 277.961 286.083 276.821C283.518 275.111 281.523 273.116 279.243 270.551C279.813 273.686 282.093 276.536 284.943 278.531C286.368 279.386 288.078 280.241 289.788 280.526C281.238 282.236 272.118 282.236 263.568 280.241H262.998C262.143 280.526 261.573 280.526 260.718 280.526C262.713 279.671 264.138 277.961 265.563 276.251C267.273 273.971 268.413 270.836 268.128 267.986C266.703 270.551 265.563 272.831 263.853 274.826C262.428 276.821 260.718 278.531 259.008 280.526C253.878 281.381 248.748 281.666 243.903 281.381C246.468 280.811 249.033 279.386 251.313 277.676C253.878 275.396 256.158 272.261 257.013 268.841C254.733 271.406 252.453 273.971 249.888 275.966C247.608 277.961 245.043 279.386 242.193 281.096C238.773 280.811 235.638 280.241 232.218 279.386C235.353 279.101 238.488 277.676 241.338 275.966C244.758 273.971 247.608 270.836 249.318 267.416C246.183 269.981 243.333 272.261 240.198 274.256C237.348 275.966 234.213 277.676 231.078 279.101C228.798 278.531 226.803 277.676 224.808 276.821C221.673 275.681 218.823 274.256 215.403 273.116C214.263 272.831 212.838 272.546 211.698 272.546C213.693 271.691 215.403 270.551 216.828 269.126C219.108 267.131 220.818 264.851 221.673 262.001C219.393 263.996 217.398 265.706 215.403 267.701C213.408 269.411 211.413 271.121 209.703 272.831C207.993 273.401 206.568 274.826 206.283 276.251C205.143 279.956 205.998 283.091 206.853 286.511C207.708 289.646 209.133 292.781 210.273 295.916C213.123 301.901 216.543 307.601 219.963 313.301C223.383 319.001 227.088 324.416 231.078 329.831C233.073 332.396 235.068 335.246 237.918 337.241C240.768 339.236 243.903 340.661 247.323 341.231C249.033 341.516 250.743 341.516 252.738 340.661C254.448 340.091 256.443 338.666 256.728 336.671C257.583 333.821 257.868 330.971 257.583 327.836C262.713 328.406 267.558 328.691 272.688 328.691C272.688 330.686 272.403 332.681 272.973 334.676C273.258 335.816 273.543 337.241 274.113 338.381C274.683 339.521 276.108 340.661 277.248 340.946C279.813 341.801 282.378 341.516 284.658 341.231C286.938 340.661 289.503 339.806 291.213 338.096C294.918 334.961 297.483 330.971 300.333 326.981C302.898 322.991 305.463 319.001 307.743 315.011C312.303 307.316 316.293 299.336 319.998 291.071C321.708 287.081 323.418 282.806 324.273 278.246C324.273 277.106 324.558 275.966 324.273 274.826V274.826ZM322.278 277.961C321.708 282.236 320.283 286.511 318.573 290.786C315.438 299.051 311.163 307.031 306.888 315.011C304.608 319.001 302.043 322.991 299.193 326.981C296.628 330.686 293.493 334.676 289.788 337.241C288.078 338.666 285.798 339.236 283.518 339.806C281.238 340.091 278.958 340.091 276.963 339.236C276.108 338.951 275.253 338.381 274.968 337.241C274.683 336.386 274.398 335.246 274.398 334.106C274.113 331.826 274.113 329.546 274.398 327.266L274.683 326.126H273.543C267.843 326.126 261.858 325.271 255.873 324.986L254.163 324.701L254.448 326.411C255.018 329.546 254.733 332.681 253.878 335.531C253.308 338.096 249.888 338.951 247.038 338.666C243.903 338.381 241.053 337.241 238.488 335.531C235.923 333.536 233.928 330.971 231.933 328.691C227.943 323.561 224.238 318.146 220.818 312.446C217.398 306.746 213.978 301.046 211.413 295.061C209.988 291.926 209.133 289.076 208.278 285.941C207.423 282.806 206.853 279.386 207.993 276.536C208.563 275.111 209.703 274.256 210.843 273.971C212.268 273.686 213.693 273.971 215.118 274.541C218.253 275.681 221.103 277.106 224.238 278.246C230.508 280.811 237.063 282.806 243.618 283.091C250.173 283.661 256.728 283.091 263.283 281.951C272.118 283.946 281.523 283.661 290.358 281.951C292.638 281.666 294.918 281.096 296.913 280.526C299.193 279.956 301.473 279.671 303.468 278.816C307.743 277.391 311.733 275.111 315.723 273.401C317.718 272.546 319.998 271.691 321.138 272.546C322.563 273.686 322.563 275.966 322.278 277.961V277.961ZM227.943 271.406C230.793 269.981 233.643 267.701 235.068 264.851C232.218 266.561 229.653 268.271 226.803 269.411C223.953 270.836 221.103 271.976 218.253 273.116C221.673 273.686 225.093 272.831 227.943 271.406ZM205.428 265.136C207.423 262.001 209.703 259.436 212.553 256.871C208.848 258.011 205.713 260.861 203.433 263.996C201.438 267.416 200.013 271.406 200.583 275.111C202.008 271.691 203.433 268.271 205.428 265.136ZM327.693 273.401C329.118 279.386 327.408 286.226 323.703 291.356C328.833 287.081 331.398 279.671 329.973 272.831C328.548 265.991 323.133 260.291 316.578 258.581C321.993 262.001 326.268 267.416 327.693 273.401ZM205.143 312.731C204.003 307.601 202.578 303.041 201.438 297.911C200.298 293.066 199.443 288.221 198.303 283.091C197.733 288.221 198.303 293.351 199.443 298.481C200.298 303.611 202.293 308.456 205.143 312.731V312.731ZM323.418 326.696C324.558 320.426 325.698 314.156 327.123 308.171C328.548 302.186 330.258 295.916 332.253 289.931C328.833 295.346 326.553 301.616 325.128 307.601C323.418 313.586 322.848 320.141 323.418 326.696V326.696ZM221.958 353.486C220.248 348.356 219.108 342.941 217.968 337.811C217.113 332.396 216.543 326.981 215.973 321.566C215.403 326.981 215.688 332.681 216.258 338.096C216.828 343.511 218.253 348.926 219.678 354.341C221.388 359.756 223.383 364.601 226.233 369.446C228.798 374.291 231.933 378.851 235.638 383.126C232.788 378.566 230.223 373.721 227.658 368.876C225.663 363.746 223.383 358.616 221.958 353.486V353.486ZM253.023 382.841C253.023 385.121 254.163 386.831 255.303 388.826C256.443 390.536 258.153 391.961 260.148 392.816C259.293 390.821 258.153 389.396 257.013 387.686C255.873 385.976 254.733 384.266 253.023 382.841ZM237.918 344.651C238.773 349.781 240.483 354.626 242.763 359.186C245.043 363.746 247.893 368.021 251.598 371.726C249.318 367.166 246.753 362.606 244.473 358.046C242.478 353.771 240.483 349.211 237.918 344.651ZM255.018 362.321C254.163 360.326 253.308 358.331 251.598 356.906C251.598 359.186 252.168 361.181 253.023 363.176C253.878 365.171 254.733 367.166 256.443 368.591C256.443 366.311 255.873 364.316 255.018 362.321ZM259.008 336.386C258.153 339.806 258.438 343.511 259.008 346.931C259.578 350.351 261.003 353.771 262.998 356.621C262.428 353.201 261.858 349.781 261.288 346.646C260.433 342.941 259.863 339.806 259.008 336.386V336.386ZM267.843 379.421C268.128 382.271 269.553 384.836 270.978 387.401C272.403 389.681 274.398 391.961 276.963 393.386C275.823 390.821 274.398 388.541 272.973 386.261C271.263 383.696 269.838 381.416 267.843 379.421V379.421ZM286.083 366.026C288.648 362.321 290.358 358.331 291.498 354.056C292.638 349.781 293.493 345.506 293.208 340.946C291.783 345.221 290.643 349.211 289.503 353.486C288.363 357.476 287.223 361.751 286.083 366.026V366.026ZM305.178 381.131C307.458 375.716 309.168 370.016 310.878 364.601C312.303 358.901 313.728 353.201 314.298 347.501C312.018 352.916 310.308 358.616 308.598 364.031C307.173 369.731 306.033 375.431 305.178 381.131ZM349.638 338.381C348.783 341.801 347.643 345.506 346.503 348.926C345.363 352.346 343.938 355.766 342.228 359.186C340.518 362.606 338.808 365.741 337.098 368.876C339.663 366.026 341.943 363.176 343.653 359.756C345.648 356.621 347.073 353.201 348.498 349.496C349.638 346.076 350.778 342.371 351.348 338.666C351.918 334.961 352.203 331.256 352.203 327.551C351.348 331.256 350.778 334.961 349.638 338.381ZM355.623 277.391C354.768 283.946 353.058 290.216 351.348 296.771C354.768 291.071 356.763 284.516 357.618 277.676C358.473 271.121 358.188 263.996 356.478 257.726C356.763 264.281 356.478 270.836 355.623 277.391V277.391ZM194.028 332.681C192.033 326.981 190.323 321.281 188.898 315.581C187.473 309.881 186.048 303.896 184.908 297.911C185.193 303.896 186.048 309.881 187.188 315.866C188.328 321.851 190.038 327.551 192.033 333.251C194.028 338.951 196.308 344.651 199.158 350.066C202.008 355.481 204.858 360.611 208.563 365.456C205.713 360.041 203.148 354.626 200.583 349.211C198.018 343.796 196.023 338.381 194.028 332.681ZM176.643 325.556C174.648 320.141 172.938 314.726 171.513 309.311C170.072 303.771 168.93 298.158 168.093 292.496C168.093 298.196 168.663 304.181 169.803 309.596C170.943 315.296 172.653 320.996 174.648 326.411C176.643 331.826 179.208 337.241 182.343 342.086C185.193 347.216 188.613 351.776 192.603 356.051C189.468 351.206 186.618 346.361 183.768 341.231C180.918 336.101 178.638 330.971 176.643 325.556V325.556ZM165.243 314.156C163.818 309.596 162.678 305.036 161.823 300.191C160.968 295.631 160.113 290.786 159.258 285.941C158.973 290.786 159.543 295.631 160.113 300.476C160.683 305.321 161.823 310.166 163.248 314.726C164.673 319.286 166.383 323.846 168.378 328.406C170.373 332.681 172.938 336.956 175.788 340.946C173.793 336.671 171.798 332.111 170.088 327.836C168.093 323.276 166.668 318.716 165.243 314.156V314.156ZM152.133 289.646C151.563 285.086 151.278 280.526 151.278 275.681C151.278 271.121 151.278 266.276 151.563 261.716C150.423 266.276 149.853 271.121 149.568 275.681C149.283 280.526 149.568 285.086 150.138 289.931C150.708 294.776 151.563 299.336 152.988 303.896C154.413 308.456 155.838 312.731 158.118 317.006C156.693 312.446 155.553 307.886 154.698 303.326C153.558 298.766 152.703 294.206 152.133 289.646V289.646ZM145.008 243.476C144.723 247.751 144.723 252.026 145.578 256.301C146.433 252.026 146.718 247.751 147.003 243.761C147.288 239.486 147.573 235.211 147.003 230.936C145.863 234.926 145.293 239.201 145.008 243.476ZM375.573 277.676C375.573 282.236 375.858 286.796 375.573 291.356C375.288 295.916 375.288 300.476 374.718 305.036C374.433 309.596 373.863 314.156 373.008 318.716C372.438 323.276 371.583 327.836 370.443 332.396C372.153 328.121 373.578 323.561 374.433 319.286C375.573 314.726 376.143 310.166 376.428 305.606C376.713 301.046 376.998 296.486 376.713 291.641C376.998 286.796 376.428 282.236 375.573 277.676V277.676ZM381.843 252.311C380.133 245.471 377.853 238.631 375.003 232.361C376.998 239.201 378.708 245.756 380.133 252.596C381.558 259.436 382.698 266.276 383.268 273.116C384.123 279.956 384.408 287.081 384.408 293.921C384.408 300.761 384.123 307.886 383.553 315.011C384.978 308.171 385.833 301.046 386.118 294.206C386.403 287.081 386.118 280.241 385.548 273.116C384.693 265.991 383.553 259.151 381.843 252.311V252.311ZM383.838 226.946C382.698 222.956 381.843 218.966 380.418 214.976C378.993 210.986 377.853 207.281 376.143 203.291L378.708 215.261C379.563 219.251 380.703 223.241 381.558 227.231C382.698 231.221 383.553 235.211 384.693 239.201C385.833 243.191 386.688 247.181 388.113 251.171C387.828 247.181 386.973 242.906 386.403 238.916C385.833 234.926 384.978 230.936 383.838 226.946V226.946ZM382.698 202.151C382.983 199.586 382.413 197.306 381.558 195.026C380.988 192.746 379.848 190.466 378.423 188.471C378.138 191.036 378.708 193.316 379.563 195.596C380.418 197.876 381.273 200.156 382.698 202.151ZM274.398 357.761C273.828 360.611 273.828 363.176 274.113 366.311C275.253 363.746 276.108 360.896 276.393 358.331C276.963 355.481 276.963 352.916 276.678 349.781C275.538 352.346 274.968 354.911 274.398 357.761Z" fill="#1B141C"/>
<path d="M268.121 161.172C268.121 161.172 261.623 158.521 256.578 165.618C251.534 172.714 240.59 217.402 240.305 233.989C240.02 250.548 243.269 256.191 246.803 255.592C250.365 254.994 253.016 246.7 255.096 248.182C257.177 249.664 261.908 258.841 266.354 257.644C270.8 256.447 272.567 247.584 275.816 247.869C279.065 248.154 281.744 256.162 284.394 256.447C287.045 256.732 293.286 252.6 292.374 242.254C291.491 231.909 279.065 162.967 268.121 161.172V161.172Z" fill="url(#paint0_linear_9_9)"/>
<path d="M268.121 161.172C265.499 160.26 262.478 160.687 260.169 162.169C257.775 163.623 256.179 166.017 255.096 168.553C252.93 173.655 251.42 179.013 249.938 184.314C247.088 195.001 244.779 205.86 242.984 216.775C242.129 222.219 241.359 227.719 241.188 233.163C241.131 238.635 241.331 244.221 242.67 249.351C243.041 250.605 243.497 251.859 244.124 252.856C244.779 253.854 245.606 254.538 246.404 254.395C247.145 254.395 248.114 253.512 248.883 252.514C249.681 251.517 250.422 250.348 251.277 249.18C251.705 248.581 252.132 248.011 252.845 247.384C253.215 247.099 253.728 246.7 254.64 246.729C255.068 246.729 255.495 246.928 255.78 247.128L256.322 247.584C257.433 248.752 258.203 249.864 259.058 250.947C259.884 252.03 260.739 253.084 261.651 254.025C262.535 254.965 263.532 255.82 264.501 256.191C264.729 256.276 264.986 256.39 265.185 256.39C265.299 256.39 265.413 256.447 265.499 256.419C265.613 256.39 265.698 256.39 265.812 256.362C266.012 256.39 266.24 256.219 266.468 256.162C266.696 256.048 266.924 255.906 267.123 255.763C268.007 255.079 268.776 254.053 269.489 252.942C270.23 251.83 270.885 250.605 271.712 249.408C272.111 248.809 272.624 248.182 273.251 247.584C273.621 247.299 273.992 247.014 274.533 246.814C274.761 246.7 275.075 246.672 275.36 246.643C275.673 246.615 275.958 246.615 276.186 246.7C277.269 246.928 277.982 247.498 278.552 248.04C279.15 248.581 279.606 249.18 280.034 249.778C280.889 250.947 281.63 252.144 282.399 253.227C282.77 253.768 283.169 254.281 283.568 254.709C283.767 254.88 283.967 255.108 284.138 255.165L284.252 255.25H284.337C284.366 255.25 284.394 255.279 284.423 255.279H284.565C285.42 255.279 286.646 254.68 287.529 253.911C289.41 252.315 290.55 249.892 291.063 247.356C291.576 244.791 291.405 242.14 291.035 239.376C290.351 233.904 289.467 228.432 288.527 222.988C286.617 212.101 284.423 201.214 281.658 190.498C280.233 185.14 278.723 179.811 276.813 174.624C275.844 172.03 274.79 169.465 273.479 167.014C272.823 165.789 272.111 164.592 271.256 163.509C270.543 162.54 269.489 161.457 268.121 161.172V161.172ZM268.121 161.172C269.517 161.428 270.572 162.511 271.427 163.566C272.282 164.649 273.023 165.846 273.678 167.043C274.989 169.494 276.072 172.059 277.041 174.624C279.008 179.811 280.661 185.112 282.143 190.441C285.164 201.1 287.7 211.93 289.923 222.789C291.035 228.232 292.061 233.676 292.916 239.176C293.343 241.912 293.657 244.848 293.172 247.755C292.659 250.633 291.462 253.54 289.097 255.621C288.498 256.134 287.871 256.59 287.13 256.932C286.418 257.302 285.591 257.559 284.622 257.587H284.252L283.824 257.473L283.397 257.331L283.083 257.16C282.627 256.903 282.342 256.618 282.029 256.333C281.459 255.763 281.003 255.165 280.575 254.595C279.72 253.426 278.979 252.258 278.181 251.232C277.782 250.719 277.383 250.206 276.956 249.835C276.528 249.436 276.101 249.151 275.787 249.123C275.531 249.094 275.36 249.123 274.932 249.465C274.562 249.835 274.163 250.291 273.821 250.833C273.108 251.916 272.424 253.141 271.655 254.338C270.857 255.535 270.002 256.789 268.691 257.815C268.349 258.072 267.978 258.3 267.579 258.499C267.152 258.642 266.781 258.898 266.268 258.927L265.527 259.012C265.299 259.012 265.071 258.984 264.815 258.955C264.33 258.927 263.931 258.756 263.504 258.613C261.908 257.929 260.796 256.875 259.77 255.82C258.773 254.766 257.889 253.626 257.034 252.514C256.179 251.431 255.353 250.234 254.555 249.408C254.469 249.351 254.384 249.265 254.298 249.18C254.298 249.208 254.384 249.237 254.469 249.237C254.669 249.237 254.555 249.208 254.384 249.351C254.042 249.636 253.614 250.149 253.244 250.662C252.446 251.745 251.676 252.913 250.736 254.053C250.251 254.623 249.738 255.193 249.083 255.706C248.427 256.191 247.572 256.704 246.546 256.732C246.062 256.789 245.577 256.704 245.093 256.59C244.665 256.419 244.181 256.248 243.839 255.963C243.069 255.45 242.585 254.766 242.157 254.11C241.331 252.771 240.875 251.346 240.476 249.949C239.763 247.128 239.507 244.306 239.364 241.513C239.222 238.692 239.25 235.927 239.364 233.106C239.706 227.491 240.647 222.019 241.644 216.547C243.753 205.632 246.404 194.859 249.51 184.228C251.078 178.927 252.702 173.598 254.897 168.496C255.98 165.96 257.633 163.566 260.027 162.112C262.478 160.659 265.499 160.26 268.121 161.172V161.172Z" fill="#9D521B"/>
<path d="M139.634 131.64C139.634 131.64 145.184 136.62 147.404 141.63C149.624 146.61 147.404 155.49 149.054 156.6C150.704 157.71 156.254 141.63 156.254 141.63L160.124 77.28L208.394 32.34L228.374 53.97C228.374 53.97 279.404 56.73 304.394 55.62L325.484 40.08L372.104 80.04L373.754 142.17L380.954 156.03C380.954 156.03 383.174 140.49 384.284 138.27C385.394 136.05 390.374 130.5 390.374 130.5C390.374 130.5 394.814 90 392.594 78.36C390.374 66.72 375.944 37.29 349.874 17.88C323.804 -1.52998 242.804 1.23001 228.374 2.34001C213.944 3.45001 182.864 12.87 182.864 12.87L185.624 16.74L177.854 20.07L176.744 24.51C176.744 24.51 160.664 34.5 154.544 41.7C148.424 48.9 142.904 62.79 141.224 74.43C139.544 86.07 139.634 131.64 139.634 131.64V131.64Z" fill="#2A232B"/>
<path d="M139.784 131.58C142.454 134.04 145.094 136.89 146.984 140.16C149.054 143.52 148.874 147.57 148.844 151.26C148.844 152.19 148.814 153.12 148.844 154.05C148.874 154.5 148.904 154.95 148.994 155.37C149.024 155.79 149.354 156.18 149.294 156.15C149.114 156.21 149.654 155.85 149.804 155.49C150.044 155.13 150.284 154.74 150.494 154.35C150.914 153.54 151.304 152.7 151.694 151.86C153.164 148.44 154.424 144.93 155.624 141.39L155.594 141.57L159.044 77.19L159.074 76.74L159.404 76.41L207.554 31.32L208.544 30.42L209.444 31.41L229.394 53.07L228.524 52.65C241.154 53.34 253.814 53.85 266.474 54.33C279.134 54.75 291.794 55.11 304.424 54.75L303.944 54.93L325.154 39.57L325.574 39.27L325.964 39.6L372.434 79.71L372.584 79.83V80.04L374.504 142.17L374.414 141.87L381.674 155.7L380.204 155.94C380.864 151.32 381.554 146.7 382.454 142.08C382.694 140.91 382.904 139.77 383.294 138.57C383.774 137.19 384.554 136.32 385.244 135.33C386.684 133.44 388.184 131.64 389.744 129.87L389.504 130.38C390.704 118.02 391.724 105.63 392.024 93.27C392.054 87.09 392.384 80.85 390.524 75.15C388.724 69.36 385.994 63.78 383.024 58.41C377.024 47.67 369.524 37.74 360.764 29.16C356.384 24.9 351.704 20.7 346.604 17.58C341.594 14.28 335.654 12.45 329.864 10.62C318.014 7.44 305.714 5.76 293.384 4.62C281.054 3.54 268.664 3.09 256.244 3.06C250.034 3.06 243.854 3.12 237.644 3.36C234.554 3.48 231.464 3.63 228.404 3.84C225.404 4.11 222.374 4.59 219.344 5.1C207.224 7.38 195.194 10.62 183.284 14.04L183.944 12.15L186.704 16.05L187.574 17.28L186.194 17.85L178.394 21.12L179.054 20.34L177.914 24.78L177.794 25.23L177.404 25.47C173.174 28.11 168.974 30.93 164.954 33.9C160.994 36.93 156.974 40.02 154.064 43.92C148.304 51.96 144.704 61.59 142.604 71.28C141.554 76.14 141.404 81.18 141.074 86.22C140.804 91.26 140.594 96.3 140.444 101.34C140.144 111.42 139.934 121.62 139.784 131.58V131.58ZM139.514 131.7C139.394 121.5 139.394 111.48 139.484 101.37C139.544 96.33 139.634 91.29 139.784 86.22C140.024 81.18 140.144 76.08 141.134 71.07C142.094 66.06 143.564 61.17 145.424 56.43C147.314 51.72 149.534 47.07 152.594 42.87C155.684 38.61 159.794 35.46 163.754 32.31C167.804 29.22 171.974 26.34 176.264 23.61L175.754 24.3L176.834 19.86L176.954 19.32L177.494 19.08L185.234 15.69L184.724 17.49L181.934 13.62L180.914 12.21L182.564 11.7C194.504 8.1 206.504 4.74 218.804 2.25C221.894 1.68 224.984 1.11 228.194 0.839996C231.344 0.599996 234.464 0.449996 237.554 0.329996C243.794 0.0899961 250.034 0 256.274 0C268.754 0 281.234 0.42 293.684 1.5C306.134 2.61 318.584 4.26 330.734 7.62C336.734 9.57 342.824 11.46 348.254 15.03C353.714 18.42 358.334 22.65 362.864 27.06C371.804 35.91 379.394 46.08 385.454 57.09C388.454 62.61 391.154 68.31 392.984 74.43C393.944 77.46 394.334 80.79 394.424 83.91C394.484 87.06 394.484 90.18 394.364 93.3C393.884 105.78 392.744 118.17 391.394 130.56L391.364 130.86L391.154 131.07C389.624 132.78 388.094 134.55 386.684 136.35C386.024 137.25 385.244 138.21 384.974 139.05C384.644 140.07 384.404 141.24 384.164 142.35C383.234 146.88 382.514 151.5 381.824 156.09L381.464 158.49L380.354 156.33L373.184 142.44L373.094 142.29V142.14L371.684 79.98L371.834 80.31L325.094 40.5L325.934 40.53L304.964 56.22L304.754 56.37H304.484C291.764 56.94 279.074 56.76 266.384 56.52C253.694 56.28 241.034 55.74 228.344 55.14L227.834 55.11L227.474 54.72L207.464 33.09L209.354 33.15L160.964 78.09L161.324 77.34L156.974 141.66V141.75L156.944 141.84C155.654 145.38 154.304 148.89 152.714 152.31C152.324 153.18 151.904 154.02 151.424 154.86C151.184 155.28 150.944 155.7 150.644 156.09C150.494 156.3 150.344 156.48 150.134 156.69C149.954 156.84 149.654 157.17 149.054 157.08C148.184 156.63 148.184 156 148.064 155.52C147.974 155.01 147.944 154.53 147.944 154.05C147.914 153.09 147.974 152.16 148.004 151.2C148.094 147.51 148.364 143.61 146.474 140.4C144.704 137.16 142.244 134.37 139.514 131.7V131.7Z" fill="#1B141C"/>
<path d="M166.574 162.93C161.684 172.02 162.524 191.13 172.994 207.66C183.344 224.04 211.454 225.06 228.224 217.02C245.054 208.95 251.714 192.69 252.464 180.54C253.244 168.3 242.834 161.31 237.104 159.18C231.344 157.02 199.064 152.73 184.364 154.86C169.694 157.02 166.574 162.93 166.574 162.93Z" fill="url(#paint1_linear_9_9)"/>
<path d="M365.594 162.93C370.484 172.02 369.644 191.13 359.174 207.66C348.824 224.04 320.714 225.06 303.944 217.02C287.114 208.95 280.454 192.69 279.704 180.54C278.924 168.3 289.334 161.31 295.064 159.18C300.824 157.02 333.104 152.73 347.804 154.86C362.474 157.02 365.594 162.93 365.594 162.93V162.93Z" fill="url(#paint2_linear_9_9)"/>
<path d="M326.504 225.06C312.944 225.06 300.254 220.83 291.614 213.42C278.174 201.93 275.654 187.89 274.454 181.08C274.154 179.49 273.944 178.2 273.644 177.42C272.054 173.01 270.134 170.79 267.974 170.79H264.194C262.034 170.79 260.114 173.04 258.524 177.42C258.254 178.2 258.014 179.46 257.714 181.08C256.514 187.86 253.994 201.9 240.554 213.42C231.914 220.83 219.194 225.06 205.664 225.06C196.844 225.06 188.354 223.17 182.324 219.9C166.274 211.17 161.624 192.24 160.364 184.47C158.744 174.57 154.694 172.68 153.464 172.35L152.894 155.19C154.004 155.16 157.364 155.04 160.304 154.29C160.484 154.26 178.844 149.82 196.784 149.82C199.754 149.82 202.544 149.94 205.094 150.18C222.014 151.83 235.604 154.98 245.534 157.29L247.724 157.8C254.624 159.39 259.454 159.63 261.734 159.63C262.964 159.63 263.624 159.57 263.624 159.57H268.544C268.544 159.57 269.174 159.63 270.374 159.63C272.654 159.63 277.514 159.39 284.384 157.8L286.574 157.29C296.504 154.98 310.124 151.8 327.014 150.18C329.564 149.94 332.354 149.82 335.324 149.82C353.264 149.82 371.624 154.26 371.804 154.29C374.774 155.04 378.104 155.16 379.214 155.19L378.644 172.35C377.414 172.71 373.364 174.6 371.744 184.47C370.484 192.24 365.834 211.17 349.784 219.9C343.844 223.2 335.324 225.06 326.504 225.06V225.06ZM334.994 156.57C332.594 156.57 330.224 156.63 327.974 156.72C323.804 156.9 306.464 158.13 297.584 161.13C288.704 164.13 282.734 169.98 282.044 176.37C281.234 183.72 283.634 192.96 288.464 201C293.594 209.55 300.344 214.92 309.104 217.47C314.504 219.03 319.604 219.75 325.154 219.75C329.744 219.75 334.634 219.24 340.094 218.22C349.784 216.36 357.104 209.46 361.844 197.67C366.044 187.2 367.154 171.36 361.574 164.04C357.764 159.03 349.064 156.57 334.994 156.57ZM197.174 156.57C183.104 156.57 174.404 159 170.564 164.01C164.984 171.3 166.094 187.17 170.294 197.64C175.034 209.46 182.354 216.36 192.044 218.19C197.504 219.24 202.364 219.72 206.984 219.72C212.534 219.72 217.634 219 223.034 217.44C231.824 214.89 238.574 209.52 243.674 200.97C248.504 192.9 250.904 183.69 250.094 176.34C249.374 169.95 243.434 164.1 234.554 161.1C225.674 158.1 208.334 156.87 204.164 156.69C201.944 156.66 199.574 156.57 197.174 156.57V156.57Z" fill="#2C2C2C"/>
<path d="M335.384 150.21C353.264 150.21 371.564 154.65 371.744 154.68C374.474 155.37 377.474 155.52 378.884 155.58L378.344 172.08C376.784 172.65 372.974 175.02 371.444 184.44C370.184 192.18 365.564 210.93 349.694 219.6C343.724 222.84 335.294 224.7 326.564 224.7C313.094 224.7 300.494 220.5 291.914 213.15C278.564 201.72 276.074 187.77 274.874 181.02C274.574 179.34 274.364 178.11 274.064 177.3C272.384 172.65 270.404 170.4 268.004 170.4H264.224C261.824 170.4 259.844 172.65 258.164 177.3C257.864 178.11 257.654 179.34 257.354 181.02C256.154 187.77 253.664 201.72 240.314 213.15C231.734 220.5 219.104 224.7 205.664 224.7C196.904 224.7 188.474 222.84 182.534 219.6C166.634 210.93 162.044 192.15 160.784 184.44C159.254 175.02 155.444 172.68 153.884 172.08L153.344 155.58C154.724 155.55 157.754 155.37 160.484 154.68C160.664 154.65 178.964 150.21 196.844 150.21C199.784 150.21 202.574 150.33 205.124 150.57C222.014 152.22 235.604 155.37 245.504 157.68L247.694 158.19C254.624 159.78 259.514 160.02 261.794 160.02C262.994 160.02 263.624 159.96 263.654 159.96H268.544C268.544 159.96 269.204 160.02 270.464 160.02C272.774 160.02 277.634 159.78 284.564 158.19L286.754 157.68C296.654 155.37 310.244 152.19 327.134 150.57C329.654 150.33 332.414 150.21 335.384 150.21V150.21ZM325.184 220.14C329.804 220.14 334.724 219.63 340.184 218.58C350.024 216.72 357.434 209.73 362.234 197.79C366.464 187.23 367.574 171.21 361.934 163.8C358.034 158.7 349.214 156.21 335.024 156.21C332.894 156.21 330.584 156.27 327.974 156.36C323.804 156.54 306.404 157.8 297.464 160.8C288.434 163.83 282.374 169.8 281.654 176.34C280.844 183.78 283.274 193.08 288.134 201.21C293.294 209.85 300.134 215.28 309.014 217.83C314.444 219.39 319.574 220.14 325.184 220.14V220.14ZM207.014 220.14C212.594 220.14 217.724 219.42 223.184 217.83C232.064 215.28 238.874 209.85 244.064 201.21C248.924 193.08 251.354 183.78 250.544 176.34C249.824 169.8 243.764 163.83 234.734 160.8C225.824 157.8 208.424 156.54 204.224 156.36C201.614 156.24 199.304 156.21 197.174 156.21C182.984 156.21 174.164 158.7 170.264 163.8C164.594 171.21 165.704 187.23 169.964 197.79C174.764 209.73 182.174 216.72 192.014 218.58C197.474 219.63 202.364 220.14 207.014 220.14V220.14ZM335.384 149.43C332.534 149.43 329.744 149.55 327.044 149.82C308.834 151.59 294.494 155.13 284.354 157.47C277.604 159.03 272.834 159.3 270.434 159.3C269.234 159.3 268.604 159.24 268.604 159.24H263.624C263.624 159.24 262.994 159.3 261.794 159.3C259.364 159.3 254.624 159.03 247.844 157.47C237.704 155.13 223.364 151.59 205.154 149.82C202.454 149.55 199.634 149.46 196.814 149.43C180.494 149.43 163.274 153.18 160.244 153.93C156.704 154.8 152.534 154.8 152.534 154.8L153.134 172.62C153.134 172.62 158.204 173.19 160.034 184.5C161.864 195.72 167.654 212.28 182.204 220.2C188.324 223.53 196.754 225.42 205.724 225.42C218.024 225.42 231.314 221.88 240.884 213.69C257.534 199.44 257.474 181.62 258.944 177.54C260.414 173.49 262.184 171.15 264.254 171.15H268.034C270.104 171.15 271.874 173.49 273.344 177.54C274.814 181.59 274.754 199.44 291.404 213.69C300.974 221.88 314.264 225.42 326.564 225.42C335.534 225.42 343.964 223.56 350.084 220.2C364.634 212.28 370.424 195.72 372.254 184.5C374.084 173.19 379.154 172.62 379.154 172.62L379.754 154.8C379.754 154.8 375.584 154.8 372.044 153.93C368.924 153.18 351.704 149.43 335.384 149.43V149.43ZM325.184 219.39C319.214 219.39 314.114 218.52 309.254 217.11C300.764 214.65 294.074 209.58 288.824 200.82C283.544 192.03 281.714 183.03 282.434 176.4C283.154 169.77 289.514 164.25 297.704 161.49C305.924 158.73 322.334 157.35 327.974 157.11C330.224 157.02 332.594 156.96 334.964 156.96C345.524 156.96 356.654 158.25 361.274 164.28C366.914 171.63 365.504 187.59 361.484 197.55C357.494 207.45 351.074 215.76 340.004 217.89C334.454 218.91 329.594 219.39 325.184 219.39V219.39ZM206.984 219.39C202.574 219.39 197.714 218.91 192.134 217.86C181.064 215.76 174.644 207.42 170.654 197.52C166.664 187.56 165.254 171.6 170.864 164.25C175.484 158.25 186.614 156.96 197.174 156.93C199.574 156.93 201.914 156.99 204.164 157.08C209.804 157.32 226.214 158.7 234.434 161.46C242.654 164.22 248.984 169.74 249.704 176.37C250.424 182.97 248.594 191.97 243.314 200.79C238.064 209.55 231.374 214.62 222.884 217.08C218.054 218.52 212.954 219.39 206.984 219.39V219.39Z" fill="#0D0D0D"/>
<defs>
<linearGradient id="paint0_linear_9_9" x1="266.374" y1="160.691" x2="266.374" y2="257.758" gradientUnits="userSpaceOnUse">
<stop stop-color="#C38253" stop-opacity="0"/>
<stop offset="1" stop-color="#AC642F"/>
</linearGradient>
<linearGradient id="paint1_linear_9_9" x1="208.119" y1="154.273" x2="208.119" y2="221.906" gradientUnits="userSpaceOnUse">
<stop stop-color="#9BC2CF"/>
<stop offset="1" stop-color="#6086C4" stop-opacity="0"/>
</linearGradient>
<linearGradient id="paint2_linear_9_9" x1="324.059" y1="154.273" x2="324.059" y2="221.906" gradientUnits="userSpaceOnUse">
<stop stop-color="#9BC2CF"/>
<stop offset="1" stop-color="#6086C4" stop-opacity="0"/>
</linearGradient>
</defs>
</svg>
