<svg width="98" height="100" viewBox="0 0 98 100" fill="none" xmlns="http://www.w3.org/2000/svg">
<g clip-path="url(#clip0_1_759)">
<path d="M97.2263 83.3333C97.2263 92.5 90.0082 100 81.186 100H17.0247C8.20252 100 0.984375 92.5 0.984375 83.3333V16.6667C0.984375 7.5 8.20252 0 17.0247 0H81.186C90.0082 0 97.2263 7.5 97.2263 16.6667V83.3333Z" fill="#563D7C"/>
<path d="M27.1362 21.7323H54.4205C59.4527 21.7323 63.4942 22.9251 66.5293 25.3271C69.5644 27.729 71.0898 31.3401 71.0898 36.1931C71.0898 39.1343 70.3979 41.6506 69.014 43.7421C67.6301 45.8336 65.6487 47.4676 63.0697 48.6114V48.7748C66.5293 49.5428 69.1555 51.2421 70.9326 53.8728C72.7096 56.5199 73.6059 59.8205 73.6059 63.8075C73.6059 66.095 73.2128 68.2356 72.4265 70.2127C71.6402 72.2062 70.4136 73.9218 68.7309 75.3597C67.0483 76.7977 64.9096 77.9414 62.2834 78.7911C59.6571 79.6408 56.5434 80.0656 52.9265 80.0656H27.1362V21.7323ZM36.9648 46.1604H53.0051C55.364 46.1604 57.3297 45.4741 58.9023 44.0689C60.4749 42.6637 61.2612 40.6702 61.2612 38.0558C61.2612 35.1147 60.5535 33.0395 59.1382 31.8467C57.7229 30.6539 55.6785 30.0493 53.0051 30.0493H36.9648V46.1604ZM36.9648 71.7323H54.3418C57.3297 71.7323 59.6572 70.9316 61.2926 69.314C62.9438 67.7127 63.7773 65.4251 63.7773 62.4839C63.7773 59.5918 62.9596 57.3859 61.2926 55.8173C59.6257 54.2486 57.3297 53.497 54.3418 53.497H36.9648V71.7323Z" fill="white"/>
</g>
<defs>
<clipPath id="clip0_1_759">
<rect width="96.242" height="100" fill="white" transform="translate(0.984375)"/>
</clipPath>
</defs>
</svg>
