<svg width="128" height="100" viewBox="0 0 128 100" fill="none" xmlns="http://www.w3.org/2000/svg">
<path d="M109.958 57.4487C105.531 57.475 101.697 58.5946 98.4821 60.2615C97.2949 57.7875 96.1077 55.6258 95.9101 54.0115C95.6875 52.1365 95.4154 50.9904 95.6875 48.7511C95.9593 46.5112 97.1959 43.3341 97.1959 43.0737C97.171 42.8393 96.9236 41.6935 94.3764 41.6675C91.8291 41.6414 89.6276 42.1883 89.3802 42.8914C89.1329 43.5946 88.6382 45.2091 88.3167 46.8758C87.8715 49.3237 83.2217 57.9956 80.5752 62.5529C79.7095 60.782 78.9676 59.2196 78.8189 57.9693C78.5966 56.0946 78.3242 54.9485 78.5966 52.7091C78.8686 50.4693 80.1053 47.2925 80.1053 47.0321C80.0805 46.7977 79.8332 45.6518 77.2859 45.6258C74.7382 45.5998 72.5372 46.1466 72.2898 46.8498C72.0425 47.5529 71.7704 49.2196 71.2263 50.8341C70.7067 52.4487 64.5233 66.9279 62.9157 70.7039C62.0995 72.631 61.3825 74.1675 60.8628 75.2091C60.3434 76.2508 60.8381 75.2873 60.7886 75.3914C60.3434 76.2768 60.0961 76.7716 60.0961 76.7716V76.7979C59.7498 77.449 59.3788 78.0737 59.2055 78.0737C59.0818 78.0737 58.8345 76.3289 59.2549 73.9334C60.1701 68.9071 62.396 61.0688 62.3716 60.7823C62.3716 60.6521 62.7918 59.2716 60.9368 58.5688C59.1313 57.8656 58.4884 59.0375 58.3398 59.0375C58.1914 59.0375 58.0677 59.4542 58.0677 59.4542C58.0677 59.4542 60.0711 50.6263 54.2341 50.6263C50.5736 50.6263 45.528 54.819 43.0299 58.6472C41.447 59.5586 38.0833 61.4854 34.5217 63.543C33.1614 64.3242 31.7516 65.1576 30.416 65.9128L30.1442 65.5998C23.0705 57.657 9.98658 52.0321 10.5307 41.355C10.7286 37.4748 12.0147 27.2404 35.6599 14.8446C55.026 4.68832 70.5338 7.47477 73.2294 13.6727C77.0631 22.5269 64.9438 38.9852 44.8112 41.355C37.1439 42.2664 33.1122 39.1414 32.0983 37.9696C31.0348 36.7456 30.8864 36.6935 30.4907 36.9279C29.8476 37.2925 30.2433 38.3862 30.4907 39.0373C31.0843 40.6779 33.5576 43.5946 37.7622 45.0529C41.4472 46.3289 50.4504 47.0321 61.333 42.605C73.5265 37.631 83.0488 23.8289 80.2539 12.2925C77.4096 0.547694 58.9092 -3.30647 41.4228 3.22998C31.0098 7.13623 19.7315 13.23 11.619 21.2248C1.97302 30.7039 0.439555 38.9852 1.08262 42.4227C3.33359 54.6883 19.3852 62.6831 25.8158 68.5946C25.4943 68.7766 25.1975 68.9589 24.9255 69.1154C21.7101 70.7818 9.46718 77.5268 6.40026 84.662C2.93761 92.7349 6.94439 98.5425 9.61558 99.3237C17.8765 101.746 26.3352 97.3966 30.9109 90.2352C35.4616 83.0737 34.9177 73.7768 32.8153 69.5321L32.7409 69.3758L35.2637 67.8133C36.8963 66.7977 38.504 65.8602 39.9135 65.0526C39.1223 67.3182 38.5532 70.0005 38.2567 73.9068C37.9104 78.4904 39.6912 84.4276 42.0408 86.7714C43.0796 87.7867 44.3163 87.813 45.083 87.813C47.8037 87.813 49.0403 85.443 50.4007 82.6047C52.0825 79.1412 53.5665 75.1307 53.5665 75.1307C53.5665 75.1307 51.7115 85.9901 56.7819 85.9901C58.6368 85.9901 60.4918 83.4641 61.3328 82.162V82.188C61.3328 82.188 61.3822 82.1099 61.4812 81.9276C61.5849 81.7661 61.6839 81.6011 61.778 81.4331V81.381C62.52 80.0268 64.1771 76.9279 66.6504 71.7977C69.8407 65.1831 72.9079 56.9018 72.9079 56.9018C72.9079 56.9018 73.2047 58.9331 74.1198 62.2664C74.6637 64.2459 75.8509 66.4071 76.766 68.5164C76.0241 69.6102 75.5789 70.2354 75.5789 70.2354L75.6036 70.2615C75.0102 71.0948 74.3422 71.9805 73.6499 72.8656C71.1271 76.0427 68.1097 79.6628 67.7139 80.7044C67.244 81.9281 67.3429 82.8396 68.2581 83.569C68.9259 84.0899 70.1131 84.1938 71.3745 84.0899C73.6499 83.9334 75.2328 83.3347 76.0243 82.9698C77.261 82.5011 78.6708 81.7979 80.0311 80.7563C82.5044 78.8294 84.0131 76.0951 83.8647 72.4492C83.7905 70.444 83.1722 68.4649 82.4055 66.5899C82.6281 66.2513 82.8509 65.9125 83.0733 65.5482C86.9811 59.5323 89.9986 52.918 89.9986 52.918C89.9986 52.918 90.2954 54.9492 91.2105 58.2826C91.6802 59.9753 92.6203 61.8245 93.4612 63.6474C89.8007 66.7985 87.5005 70.4443 86.7091 72.8401C85.2498 77.2672 86.3875 79.2724 88.5393 79.7412C89.5037 79.9495 90.889 79.4808 91.9275 79.012C93.2136 78.5693 94.7718 77.8138 96.2066 76.6943C98.6799 74.7672 101.054 72.0849 100.931 68.4651C100.856 66.7985 100.436 65.1578 99.8671 63.5953C102.984 62.2412 107.015 61.4599 112.135 62.111C123.141 63.4651 125.318 70.7047 124.897 73.7255C124.477 76.7466 122.177 78.413 121.41 78.9339C120.643 79.4287 120.396 79.6112 120.47 79.9755C120.569 80.5227 120.915 80.4964 121.583 80.3925C122.498 80.236 127.37 77.9185 127.568 72.3459C127.865 65.1834 121.41 57.3709 109.958 57.4487V57.4487ZM25.0739 87.5789C21.4381 91.7716 16.3183 93.3602 14.1418 92.006C11.7921 90.5737 12.707 84.4018 17.1839 79.9487C19.9046 77.2404 23.4415 74.7404 25.7664 73.2039C26.2858 72.8654 27.0772 72.3709 28.0171 71.7716C28.1655 71.6677 28.2644 71.6154 28.2644 71.6154C28.4376 71.5112 28.6354 71.381 28.8333 71.2508C30.4904 77.605 28.9075 83.1779 25.0739 87.5789V87.5789ZM51.6621 68.5425C50.4007 71.7977 47.7295 80.157 46.1218 79.6883C44.7365 79.2977 43.8958 72.9695 45.8495 66.7196C46.8388 63.5683 48.9412 59.8185 50.1778 58.3599C52.1815 56.0162 54.3577 55.2349 54.9021 56.1985C55.5452 57.4487 52.4535 66.5112 51.6621 68.5425ZM73.6004 79.5841C73.0563 79.8709 72.5616 80.0789 72.3391 79.9229C72.1659 79.8188 72.5614 79.4281 72.5614 79.4281C72.5614 79.4281 75.3068 76.3292 76.395 74.8969C77.0134 74.0638 77.7554 73.1003 78.5468 72.0063V72.3188C78.5471 76.0685 75.1339 78.5685 73.6004 79.5841ZM90.5177 75.5216C90.122 75.2091 90.1717 74.2456 91.5071 71.2248C92.0267 70.0268 93.2136 68.0216 95.2665 66.1206C95.5138 66.9018 95.6625 67.6568 95.6375 68.3602C95.613 73.0477 92.4472 74.7925 90.5177 75.5216Z" fill="#CF649A"/>
</svg>
